<ttFont>
          <CharString index="0">
            -81 callgsubr
            7 callgsubr
            113 -216 -41 callsubr
            123 vmoveto
            -132 -66 81 136 hvcurveto
            30 vlineto
            136 66 81 132 133 66 -81 -136 vhcurveto
            -30 vlineto
            -136 -66 -81 -133 vhcurveto
            return
          </CharString>
          <CharString index="1">
            96 -28 vlineto
            -18 -17 10 25 hvcurveto
            232 vlineto
            108 -68 63 -147 -129 -85 -58 -88 -9 0 -7 1 -6 vhcurveto
            132 15 hlineto
            21 18 26 67 63 11 -33 -40 vhcurveto
            -37 vlineto
            return
          </CharString>
          <CharString index="2">
            rmoveto
            111 hlineto
            -105 -16 callsubr
            -122 hlineto
            -106 -135 rlineto
            111 hlineto
            return
          </CharString>
          <CharString index="3">
            -100 -56 -51 -94 -94 -54 51 100 vhcurveto
            424 -145 -431 vlineto
            -177 110 -90 183 184 111 90 177 vhcurveto
            return
          </CharString>
          <CharString index="4">
            rmoveto
            65 -174 rlineto
            -221 hlineto
            65 174 rlineto
            13 34 30 101 0 vvcurveto
            5 hlineto
            0 30 -101 13 -34 vhcurveto
            return
          </CharString>
          <CharString index="5">
            rmoveto
            122 hlineto
            105 -16 callsubr
            -111 hlineto
            -55 -69 -56 69 rlineto
            -111 hlineto
            return
          </CharString>
          <CharString index="6">
            rmoveto
            -96 vlineto
            0 36 -13 58 127 51 95 114 41 vhcurveto
            177 499 rlineto
            -139 hlineto
            -78 -248 rlineto
            -14 -46 -23 -90 0 vvcurveto
            -5 hlineto
            0 -21 96 -16 41 vhcurveto
            -99 247 rlineto
            -143 hlineto
            206 -526 rlineto
            -52 -19 -28 -21 -46 hhcurveto
            return
          </CharString>
          <CharString index="7">
            rmoveto
            4 -56 hlineto
            -80 -50 -41 -83 -70 -40 20 37 vhcurveto
            -145 -7 hlineto
            -115 96 -58 159 173 105 90 176 vhcurveto
            432 -145 -174 vlineto
            -119 -48 -62 -87 -68 -40 38 73 vhcurveto
            244 -145 -241 vlineto
            -149 70 -88 145 75 59 24 56 35 vhcurveto
            endchar
          </CharString>
          <CharString index="8">
            rmoveto
            118 118 -118 hlineto
            210 -118 rmoveto
            119 118 -119 hlineto
            return
          </CharString>
          <CharString index="9">
            -88 -83 -55 -105 -131 -62 71 146 vhcurveto
            30 vlineto
            138 66 79 142 87 81 -45 -78 vhcurveto
            150 hlineto
            167 -151 79 -172 -218 -134 -113 -242 -248 126 -107 206 105 63 29 59 62 vhcurveto
            return
          </CharString>
          <CharString index="10">
            141 120 callgsubr
            -379 hlineto
            -11 3 -47 0 vhcurveto
            -5 -3 rlineto
            0 -27 49 -13 18 vhcurveto
            -264 373 rlineto
            -141 -686 141 379 hlineto
            18 -3 42 0 vhcurveto
            5 3 rlineto
            0 19 -38 20 -28 vhcurveto
            return
          </CharString>
          <CharString index="11">
            -100 callgsubr
            108 -129 rlineto
            return
          </CharString>
          <CharString index="12">
            rmoveto
            135 130 -135 hlineto
            return
          </CharString>
          <CharString index="13">
            rmoveto
            144 12 hlineto
            141 -122 61 -148 -161 -117 -62 -130 vhcurveto
            hintmask 11101010
            -44 callsubr
            hintmask 11110010
            -95 -53 38 58 hvcurveto
            5 1 9 2 vvcurveto
            -147 hlineto
            -5 -1 -9 -8 vvcurveto
            -141 135 -72 153 171 122 60 154 vhcurveto
            hintmask 11101010
            -43 callgsubr
            hintmask 11101100
            79 49 -31 -51 hvcurveto
            endchar
          </CharString>
          <CharString index="14">
            145 277 hlineto
            260 409 rlineto
            -157 hlineto
            -169 -280 rlineto
            -5 hlineto
            -171 280 rlineto
            -165 hlineto
            262 -409 rlineto
            return
          </CharString>
          <CharString index="15">
            457 112 -259 hlineto
            250 354 rlineto
            60 -433 -112 234 vlineto
            -249 -353 rlineto
            return
          </CharString>
          <CharString index="16">
            157 hlineto
            182 686 rlineto
            -134 hlineto
            -102 -422 rlineto
            -8 -34 -8 -62 0 vvcurveto
            -5 hlineto
            0 -10 69 -6 27 vhcurveto
            -100 422 rlineto
            -175 hlineto
            -101 -422 rlineto
            -7 -29 -9 -67 0 vvcurveto
            -5 hlineto
            0 -9 66 -7 30 vhcurveto
            -99 422 rlineto
            -155 hlineto
            182 -686 rlineto
            157 hlineto
            return
          </CharString>
          <CharString index="17">
            rmoveto
            105 hlineto
            -100 callgsubr
            rlineto
            return
          </CharString>
          <CharString index="18">
            -105 callsubr
            -14 callsubr
            -267 -802 rmoveto
            -99 callgsubr
            endchar
          </CharString>
          <CharString index="19">
            108 -108 -28 callsubr
            110 106 return
          </CharString>
          <CharString index="20">
            736 -102 callgsubr
            return
          </CharString>
          <CharString index="21">
            rmoveto
            63 38 45 56 56 -38 45 -63 -63 -38 -45 -56 -56 38 -45 63 hvcurveto
            44 101 rmoveto
            -25 -18 -19 -26 -27 -17 19 25 25 17 19 27 26 18 -19 -25 vhcurveto
            return
          </CharString>
          <CharString index="22">
            rmoveto
            -96 callsubr
            return
          </CharString>
          <CharString index="23">
            -12 -79 callsubr
            return
          </CharString>
          <CharString index="24">
            -239 hlineto
            -20 -13 13 16 19 16 11 23 hvcurveto
            80 hlineto
            148 78 71 108 49 -18 42 -32 30 hvcurveto
            return
          </CharString>
          <CharString index="25">
            rmoveto
            -66 callsubr
            hintmask 11110101
            -31 callgsubr
            hintmask 11111001
            -77 callgsubr
            hintmask 11110101
            -32 callgsubr
            hintmask 11110110
            54 36 -19 -41 hvcurveto
            endchar
          </CharString>
          <CharString index="26">
            569 123 -355 hlineto
            346 494 rlineto
            69 -534 -123 321 vlineto
            -347 -495 rlineto
            return
          </CharString>
          <CharString index="27">
            rmoveto
            58 hlineto
            22 13 -4 -15 -13 -8 -6 -24 hvcurveto
            return
          </CharString>
          <CharString index="28">
            123 464 123 return
          </CharString>
          <CharString index="29">
            123 166 -47 callgsubr
            return
          </CharString>
          <CharString index="30">
            -80 callsubr
            -14 -54 68 25 hlineto
            return
          </CharString>
          <CharString index="31">
            -72 -12 112 326 112 return
          </CharString>
          <CharString index="32">
            rmoveto
            -90 hlineto
            hintmask 1011100101000000
            -53 callgsubr
            hintmask 1011010101000000
            3 callsubr
            hintmask 0111010011000000
            -106 callsubr
            hintmask 1011010101000000
            -104 callgsubr
            endchar
          </CharString>
          <CharString index="33">
            246 541 rmoveto
            -54 -33 -32 -65 -65 -32 32 54 54 32 32 65 65 33 -32 -54 vhcurveto
            return
          </CharString>
          <CharString index="34">
            rmoveto
            -91 callsubr
            return
          </CharString>
          <CharString index="35">
            731 rmoveto
            64 -46 73 -116 -116 -45 -73 -64 vhcurveto
            90 hlineto
            -2 callsubr
            -1 callgsubr
            return
          </CharString>
          <CharString index="36">
            119 0 123 452 123 hstemhm
            33 332 -312 149 235 332 -169 149 hintmask 00000000
            hintmask 11011000
            437 hmoveto
            332 123 -51 hlineto
            -21 -41 -11 -3 -39 hvcurveto
            hintmask 11010100
            79 53 53 84 117 vvcurveto
            212 -132 123 -216 -216 -132 -123 -212 -117 52 -84 79 -53 vhcurveto
            hintmask 11100100
            4 -40 -40 10 -20 hhcurveto
            -51 -123 332 111 hlineto
            hintmask 11010100
            -107 20 -56 74 111 vvcurveto
            32 vlineto
            152 67 75 132 132 67 -75 -152 vhcurveto
            -32 vlineto
            -112 -55 -75 -108 -19 vhcurveto
            endchar
          </CharString>
          <CharString index="37">
            72 hlineto
            63 104 rlineto
            86 -138 -98 55 vlineto
            endchar
          </CharString>
          <CharString index="38">
            47 -31 -55 26 -71 hhcurveto
            -116 -87 -85 -189 -191 81 -85 129 67 59 27 54 34 hvcurveto
            7 hlineto
            return
          </CharString>
          <CharString index="39">
            -70 callgsubr
            159 137 return
          </CharString>
          <CharString index="40">
            -70 -28 -57 -65 hvcurveto
            70 hlineto
            return
          </CharString>
          <CharString index="41">
            133 hlineto
            1 1 11 11 vvcurveto
            90 -96 53 -123 -129 -102 -53 -107 vhcurveto
            return
          </CharString>
          <CharString index="42">
            110 callgsubr
            440 126 callgsubr
            return
          </CharString>
          <CharString index="43">
            rmoveto
            167 89 81 164 hvcurveto
            463 -137 -274 vlineto
            -63 -45 -50 -62 vhcurveto
            return
          </CharString>
          <CharString index="44">
            rmoveto
            -16 vlineto
            -95 -34 -52 -78 -84 -29 52 95 vhcurveto
            18 vlineto
            95 29 52 84 78 34 -54 -95 vhcurveto
            return
          </CharString>
          <CharString index="45">
            -10 69 rlineto
            -117 -526 137 304 hlineto
            return
          </CharString>
          <CharString index="46">
            63 45 50 62 57 34 -25 -68 vhcurveto
            return
          </CharString>
          <CharString index="47">
            17 callgsubr
            -10 callsubr
            298 145 -57 158 hintmask 00000000
            hintmask 10111010
            -19 callgsubr
            hintmask 10111100
            -121 -424 hlineto
            -104 callsubr
            hintmask 11011100
            365 vlineto
            hintmask 11011010
            38 callgsubr
            return
          </CharString>
          <CharString index="48">
            -25 -34 -3 -5 -24 hvcurveto
            return
          </CharString>
          <CharString index="49">
            -72 -12 -52 callsubr
            return
          </CharString>
          <CharString index="50">
            90 callgsubr
            70 hlineto
            return
          </CharString>
          <CharString index="51">
            45 39 -37 48 hhcurveto
            return
          </CharString>
          <CharString index="52">
            -28 -4 -12 -9 -19 return
          </CharString>
          <CharString index="53">
            136 -73 49 -101 -78 -52 -38 -43 -34 vhcurveto
            -7 hlineto
            return
          </CharString>
          <CharString index="54">
            -284 hlineto
            463 -328 -65 callsubr
            return
          </CharString>
          <CharString index="55">
            121 -88 96 callsubr
            return
          </CharString>
          <CharString index="56">
            39 0 123 189 85 166 21 callgsubr
            -289 -63 -85 63 hlineto
            463 46 110 callgsubr
            189 139 85 -139 166 126 callgsubr
            endchar
          </CharString>
          <CharString index="57">
            -59 callsubr
            -11 -234 -105 callsubr
            -14 callsubr
            return
          </CharString>
          <CharString index="58">
            -5 30 40 -3 34 hhcurveto
            54 82 14 67 46 -45 19 -53 3 hvcurveto
            return
          </CharString>
          <CharString index="59">
            72 hlineto
            66 168 rlineto
            125 -138 -137 55 vlineto
            return
          </CharString>
          <CharString index="60">
            rmoveto
            137 254 hlineto
            hintmask 11001100
            96 36 51 91 vhcurveto
            38 hlineto
            hintmask 10011100
            128 vlineto
            hintmask 11001100
            -23 callgsubr
            hintmask 10101100
            -11 85 129 callsubr
            endchar
          </CharString>
          <CharString index="61">
            -37 callsubr
            -3 callsubr
            hvcurveto
            -284 hlineto
            672 -686 rmoveto
            -81 callsubr
            -209 290 -65 callsubr
            endchar
          </CharString>
          <CharString index="62">
            526 -137 return
          </CharString>
          <CharString index="63">
            -255 418 76 -144 vvcurveto
            -41 -36 -31 -104 vhcurveto
            return
          </CharString>
          <CharString index="64">
            82 32 38 61 109 vvcurveto
            54 vlineto
            return
          </CharString>
          <CharString index="65">
            hstem
            -35 callgsubr
            return
          </CharString>
          <CharString index="66">
            -215 -132 -113 -242 -242 132 -113 215 hvcurveto
            return
          </CharString>
          <CharString index="67">
            138 137 -138 hlineto
            return
          </CharString>
          <CharString index="68">
            -4 callgsubr
            endchar
          </CharString>
          <CharString index="69">
            17 callsubr
            132 -17 callgsubr
            return
          </CharString>
          <CharString index="70">
            284 hlineto
            204 124 109 234 return
          </CharString>
          <CharString index="71">
            rmoveto
            -137 69 vlineto
            return
          </CharString>
          <CharString index="72">
            -43 -38 10 35 hvcurveto
            -133 -10 hlineto
            -100 88 -47 127 vhcurveto
            endchar
          </CharString>
          <CharString index="73">
            48 32 63 43 78 vvcurveto
            29 -11 80 -109 -70 -61 -30 -72 -16 3 -12 0 vhcurveto
            80 18 hlineto
            31 16 12 29 28 13 -19 -17 -14 -3 -16 -9 -12 vhcurveto
            return
          </CharString>
          <CharString index="74">
            -72 -182 95 93 115 59 93 172 93 return
          </CharString>
          <CharString index="75">
            -53 -13 -40 -33 -46 vvcurveto
            -36 19 -27 32 -16 vhcurveto
            return
          </CharString>
          <CharString index="76">
            hstem
            -39 callgsubr
            vstem
            return
          </CharString>
          <CharString index="77">
            6 callsubr
            195 10 callsubr
            hintmask 00000000
            hintmask 11110111
            531 1028 rmoveto
            -70 hlineto
            hintmask 11111011
            -55 callsubr
            hhcurveto
            hintmask 11110111
            -55 callgsubr
            hintmask 11111011
            -67 callsubr
            hintmask 11110111
            -66 callgsubr
            hintmask 11111011
            -56 callsubr
            hintmask 11110111
            -56 callgsubr
            hintmask 11111011
            return
          </CharString>
          <CharString index="78">
            hstemhm
            68 -17 callsubr
            return
          </CharString>
          <CharString index="79">
            112 131 91 return
          </CharString>
          <CharString index="80">
            rmoveto
            88 hlineto
            546 710 rlineto
            -88 hlineto
            return
          </CharString>
          <CharString index="81">
            47 -111 rmoveto
            -28 -17 -17 -30 -31 -16 17 28 28 16 16 31 30 17 -16 -28 vhcurveto
            endchar
          </CharString>
          <CharString index="82">
            132 -68 callsubr
            return
          </CharString>
          <CharString index="83">
            123 -90 -21 254 119 202 123 return
          </CharString>
          <CharString index="84">
            rmoveto
            137 124 -137 hlineto
            return
          </CharString>
          <CharString index="85">
            89 callgsubr
            hintmask 11100110
            -56 callsubr
            hintmask 11010110
            -56 callgsubr
            hintmask 11100100
            return
          </CharString>
          <CharString index="86">
            102 callsubr
            hintmask 11001100
            71 hmoveto
            137 254 hlineto
            hintmask 11100100
            96 36 51 91 vhcurveto
            38 hlineto
            hintmask 11001100
            128 vlineto
            hintmask 11100100
            -23 callgsubr
            hintmask 11010100
            -11 85 129 callsubr
            return
          </CharString>
          <CharString index="87">
            -75 callgsubr
            53 132 97 callgsubr
            return
          </CharString>
          <CharString index="88">
            502 723 -36 callsubr
            -11 -28 -21 -19 -32 -13 rrcurveto
            return
          </CharString>
          <CharString index="89">
            100 373 -353 -119 208 hlineto
            return
          </CharString>
          <CharString index="90">
            76 callgsubr
            137 return
          </CharString>
          <CharString index="91">
            135 rlineto
            return
          </CharString>
          <CharString index="92">
            rmoveto
            -92 callsubr
            hintmask 10001111
            -229 209 0 callsubr
          </CharString>
          <CharString index="93">
            56 69 rlineto
            return
          </CharString>
          <CharString index="94">
            31 19 15 27 32 vvcurveto
            56 -41 47 -81 -81 -41 -47 -56 -31 15 -28 30 -19 vhcurveto
            return
          </CharString>
          <CharString index="95">
            95 29 callsubr
            -31 callsubr
            return
          </CharString>
          <CharString index="96">
            -72 64 callsubr
            88 121 387 -20 return
          </CharString>
          <CharString index="97">
            hstemhm
            -35 callgsubr
            return
          </CharString>
          <CharString index="98">
            rmoveto
            4 vlineto
            hintmask 1011010110110000
            -7 callgsubr
            -12 83 8 vlineto
            4 callsubr
            hintmask 1010110110101000
            -34 -69 32 hlineto
            27 23 -9 -36 -29 -18 -13 -27 hvcurveto
            return
          </CharString>
          <CharString index="99">
            32 hlineto
            27 23 -9 -36 -29 -18 -13 -27 -30 -17 15 26 hvcurveto
            8 -83 -7 vlineto
            -67 46 -43 85 75 53 39 66 vhcurveto
            return
          </CharString>
          <CharString index="100">
            149 vstem
            67 hmoveto
            -37 callsubr
            -3 callsubr
            hvcurveto
            -284 return
          </CharString>
          <CharString index="101">
            179 89 86 189 67 -11 54 -22 42 hvcurveto
            return
          </CharString>
          <CharString index="102">
            36 5 callsubr
            return
          </CharString>
          <CharString index="103">
            -72 -12 121 -88 -21 467 59 0 -20 80 137 return
          </CharString>
          <CharString index="104">
            234 -124 109 -204 return
          </CharString>
          <CharString index="105">
            20 3 21 28 47 hhcurveto
            return
          </CharString>
          <CharString index="106">
            71 137 return
          </CharString>
          <CharString index="107">
            -63 callsubr
            endchar
          </CharString>
          <CharString index="108">
            31 callgsubr
            -73 -49 -34 -39 -32 vhcurveto
            -7 return
          </CharString>
          <CharString index="109">
            515 126 -370 560 -145 hlineto
            return
          </CharString>
          <CharString index="110">
            -98 callgsubr
            108 -719 rmoveto
            return
          </CharString>
          <CharString index="111">
            25 16 13 24 23 15 -11 -27 -30 -17 -13 -24 vhcurveto
            return
          </CharString>
          <CharString index="112">
            139 88 callgsubr
            return
          </CharString>
          <CharString index="113">
            85 -48 85 hstemhm
            return
          </CharString>
          <CharString index="114">
            hintmask 0000000000000000
            return
          </CharString>
          <CharString index="115">
            393 hmoveto
            157 hlineto
            -184 324 174 202 rlineto
            -158 hlineto
            -174 -209 rlineto
            return
          </CharString>
          <CharString index="116">
            -21 401 137 -12 -20 23 -20 return
          </CharString>
          <CharString index="117">
            70 196 70 return
          </CharString>
          <CharString index="118">
            -115 -295 -105 callsubr
            return
          </CharString>
          <CharString index="119">
            72 callgsubr
            hintmask 11111011
            -91 callgsubr
            hintmask 11111101
            -59 callsubr
            return
          </CharString>
          <CharString index="120">
            -20 82 135 -66 66 -16 callgsubr
            hintmask 11101000
            195 47 callgsubr
            return
          </CharString>
          <CharString index="121">
            29 -227 -105 callsubr
            return
          </CharString>
          <CharString index="122">
            86 callsubr
            -136 133 201 137 return
          </CharString>
          <CharString index="123">
            561 212 125 -569 -125 212 return
          </CharString>
          <CharString index="124">
            -76 callsubr
            53 return
          </CharString>
          <CharString index="125">
            594 -95 callsubr
            return
          </CharString>
          <CharString index="126">
            -39 -18 -15 -30 -37 vvcurveto
            -59 38 -49 93 93 38 49 59 return
          </CharString>
          <CharString index="127">
            -59 callsubr
            -44 58 vlineto
            22 13 -4 -15 hvcurveto
            return
          </CharString>
          <CharString index="128">
            rmoveto
            99 hlineto
            136 200 -136 200 rlineto
            -99 hlineto
            108 -200 rlineto
            return
          </CharString>
          <CharString index="129">
            261 0 168 366 152 0 -20 return
          </CharString>
          <CharString index="130">
            -72 44 callgsubr
            return
          </CharString>
          <CharString index="131">
            119 60 -77 -128 hvcurveto
            return
          </CharString>
          <CharString index="132">
            -135 hlineto
            -61 -40 -31 -56 -28 callgsubr
            vhcurveto
            return
          </CharString>
          <CharString index="133">
            89 31 41 62 113 vvcurveto
            54 vlineto
            return
          </CharString>
          <CharString index="134">
            hstemhm
            42 147 -130 146 return
          </CharString>
          <CharString index="135">
            25 callsubr
            -96 callgsubr
            return
          </CharString>
          <CharString index="136">
            78 callsubr
            132 return
          </CharString>
          <CharString index="137">
            -16 -12 123 97 123 355 -20 return
          </CharString>
          <CharString index="138">
            -13 -8 -6 -24 vhcurveto
            -14 -54 68 25 hlineto
            return
          </CharString>
          <CharString index="139">
            75 186 55 41 -20 32 -20 hstemhm
            128 83 return
          </CharString>
          <CharString index="140">
            -76 callsubr
            11 137 -95 84 callgsubr
            -61 158 hintmask 00000000
            hintmask 10011010
            return
          </CharString>
          <CharString index="141">
            123 575 -20 return
          </CharString>
          <CharString index="142">
            120 vlineto
            0 -59 -73 -84 vhcurveto
            hintmask 01011000
            -76 -57 61 -74 hhcurveto
            -95 -48 -73 0 hvcurveto
            -120 vlineto
            0 59 73 84 vhcurveto
            return
          </CharString>
          <CharString index="143">
            145 vstem
            48 callsubr
            return
          </CharString>
          <CharString index="144">
            -868 -34 callgsubr
          </CharString>
          <CharString index="145">
            10 -69 rlineto
            117 467 hlineto
            return
          </CharString>
          <CharString index="146">
            rmoveto
            95 hlineto
            58 77 rlineto
            -27 52 63 -13 74 hhcurveto
            -81 callgsubr
            123 -34 90 -62 58 hvcurveto
            return
          </CharString>
          <CharString index="147">
            145 16 callsubr
            hlineto
            return
          </CharString>
          <CharString index="148">
            105 callsubr
            723 -137 return
          </CharString>
          <CharString index="149">
            -405 21 96 callsubr
            return
          </CharString>
          <CharString index="150">
            145 64 callgsubr
            hlineto
            return
          </CharString>
          <CharString index="151">
            -15 callgsubr
            -189 return
          </CharString>
          <CharString index="152">
            rmoveto
            474 -196 rlineto
            118 vlineto
            -373 142 373 142 rlineto
            118 vlineto
            -474 -197 rlineto
            return
          </CharString>
          <CharString index="153">
            60 131 rlineto
            316 hlineto
            -111 432 rmoveto
            80 -311 rlineto
            -229 hlineto
            144 311 rlineto
            endchar
          </CharString>
          <CharString index="154">
            vlineto
            130 -53 rlineto
            52 vlineto
            -173 197 rlineto
            -21 hlineto
            -174 -197 rlineto
            -52 vlineto
            130 53 rlineto
            return
          </CharString>
          <CharString index="155">
            389 -82 callgsubr
            return
          </CharString>
          <CharString index="156">
            444 -82 callgsubr
            return
          </CharString>
          <CharString index="157">
            69 -40 148 -44 vlineto
            -9 -31 -16 -42 -14 -27 rrcurveto
            -48 -72 vlineto
            26 37 54 103 21 89 rrcurveto
            -89 hlineto
            return
          </CharString>
          <CharString index="158">
            33 callgsubr
            hintmask 11110100
            return
          </CharString>
          <CharString index="159">
            rmoveto
            256 75 -154 hlineto
            9 9 16 12 16 11 rrcurveto
            return
          </CharString>
          <CharString index="160">
            75 callsubr
            381 145 hintmask 10111110
            return
          </CharString>
          <CharString index="161">
            132 78 callgsubr
            return
          </CharString>
          <CharString index="162">
            38 85 -48 85 -70 callgsubr
            -76 70 165 137 -106 70 7 callsubr
            return
          </CharString>
          <CharString index="163">
            73 callsubr
            -70 -56 -17 -34 -41 vhcurveto
            33 -38 -57 18 -80 hhcurveto
            return
          </CharString>
          <CharString index="164">
            -15 -21 -24 -18 -27 -20 rrcurveto
            -46 -36 -48 -37 -65 vvcurveto
            return
          </CharString>
          <CharString index="165">
            -21 723 83 callgsubr
            return
          </CharString>
          <CharString index="166">
            -14 callsubr
            269 -653 rmoveto
            return
          </CharString>
          <CharString index="167">
            55 -24 vlineto
            -35 -13 25 26 return
          </CharString>
          <CharString index="168">
            -182 57 -28 -21 97 44 return
          </CharString>
          <CharString index="169">
            88 callsubr
            vstem
            return
          </CharString>
          <CharString index="170">
            -350 611 88 hstem
            14 305 vstem
            14 611 -51 callgsubr
            endchar
          </CharString>
          <CharString index="171">
            -182 112 return
          </CharString>
          <CharString index="172">
            -72 64 callsubr
            91 89 callsubr
            return
          </CharString>
          <CharString index="173">
            112 hstem
            86 138 164 136 vstem
            24 hmoveto
            492 112 -306 hlineto
            12 return
          </CharString>
          <CharString index="174">
            -21 256 121 186 123 return
          </CharString>
          <CharString index="175">
            -42 callsubr
            298 145 vstem
            return
          </CharString>
          <CharString index="176">
            -20 93 124 hstem
            71 20 callgsubr
            return
          </CharString>
          <CharString index="177">
            103 203 185 104 -185 204 -103 -204 -184 -104 184 hlineto
            return
          </CharString>
          <CharString index="178">
            39 64 callsubr
            91 11 callgsubr
            hstem
            43 callgsubr
            vstem
            return
          </CharString>
          <CharString index="179">
            68 87 69 35 114 -68 68 hstemhm
            37 83 -76 83 3 105 -30 84 -77 84 return
          </CharString>
          <CharString index="180">
            rmoveto
            346 32 hlineto
            189 -79 86 -154 return
          </CharString>
          <CharString index="181">
            38 139 210 132 return
          </CharString>
          <CharString index="182">
            hstemhm
            8 callgsubr
            return
          </CharString>
          <CharString index="183">
            vstem
            225 -27 callgsubr
            return
          </CharString>
          <CharString index="184">
            137 414 93 112 -93 return
          </CharString>
          <CharString index="185">
            -84 callsubr
            38 return
          </CharString>
          <CharString index="186">
            151 -12 68 89 67 82 68 return
          </CharString>
          <CharString index="187">
            hstemhm
            37 141 225 137 return
          </CharString>
          <CharString index="188">
            144 180 146 return
          </CharString>
          <CharString index="189">
            vlineto
            -11 3 -47 0 vhcurveto
            -5 -3 rlineto
            0 -27 49 -13 18 vhcurveto
            -264 return
          </CharString>
          <CharString index="190">
            rmoveto
            82 hlineto
            36 489 rlineto
            -153 hlineto
            return
          </CharString>
          <CharString index="191">
            723 rmoveto
            -90 hlineto
            return
          </CharString>
          <CharString index="192">
            -72 59 -49 72 vhcurveto
            return
          </CharString>
          <CharString index="193">
            hstemhm
            68 137 return
          </CharString>
          <CharString index="194">
            539 0 112 -112 123 291 112 37 123 return
          </CharString>
          <CharString index="195">
            hstem
            -1 callsubr
            return
          </CharString>
          <CharString index="196">
            35 callgsubr
            -12 -20 -2 callgsubr
            return
          </CharString>
          <CharString index="197">
            197 rlineto
            52 vlineto
            -130 -53 rlineto
            return
          </CharString>
          <CharString index="198">
            84 -75 83 79 82 -75 84 return
          </CharString>
          <CharString index="199">
            21 -21 414 112 return
          </CharString>
          <CharString index="200">
            39 -10 callgsubr
            return
          </CharString>
          <CharString index="201">
            vhcurveto
            30 vlineto
            136 return
          </CharString>
          <CharString index="202">
            -28 -15 15 28 hvcurveto
            return
          </CharString>
          <CharString index="203">
            -21 526 -20 return
          </CharString>
          <CharString index="204">
            145 vstem
            181 756 -51 callgsubr
            return
          </CharString>
          <CharString index="205">
            -294 -159 77 324 41 10 41 324 77 hstemhm
            return
          </CharString>
          <CharString index="206">
            108 callgsubr
            -88 hlineto
            return
          </CharString>
          <CharString index="207">
            67 callsubr
            -42 callsubr
            return
          </CharString>
          <CharString index="208">
            118 callgsubr
            112 hstem
            84 137 return
          </CharString>
          <CharString index="209">
            9 callsubr
            -16 callgsubr
            return
          </CharString>
          <CharString index="210">
            -20 70 132 -42 callsubr
            return
          </CharString>
          <CharString index="211">
            -118 -230 rmoveto
            111 hlineto
            return
          </CharString>
          <CharString index="212">
            423 hmoveto
            117 return
          </CharString>
          <CharString index="213">
            54 38 52 hstemhm
            return
          </CharString>
          <CharString index="214">
            464 123 27 callsubr
            return
          </CharString>
          <CharString index="215">
            -36 2 callgsubr
            return
          </CharString>
          <CharString index="216">
            rlineto
            -52 hlineto
            -197 -173 rlineto
            -21 vlineto
            197 return
          </CharString>
          <CharString index="217">
            123 440 123 return
          </CharString>
          <CharString index="218">
            hstem
            233 145 vstem
            return
          </CharString>
          <CharString index="219">
            hlineto
            41 196 rlineto
            -104 hlineto
            -41 -196 rlineto
            return
          </CharString>
          <CharString index="220">
            43 34 14 43 vhcurveto
            69 vlineto
            -101 -87 -18 -94 return
          </CharString>
          <CharString index="221">
            317 198 108 hstem
            42 918 vstem
            return
          </CharString>
          <CharString index="222">
            80 callgsubr
            68 137 return
          </CharString>
          <CharString index="223">
            -350 591 132 hstem
            return
          </CharString>
          <CharString index="224">
            -183 -207 918 hstem
            return
          </CharString>
          <CharString index="225">
            256 -253 83 86 82 return
          </CharString>
          <CharString index="226">
            30 39 8 8 21 return
          </CharString>
          <CharString index="227">
            vlineto
            hintmask 11011100
            88 -145 vlineto
            hintmask 11101100
            -88 return
          </CharString>
          <CharString index="228">
            -29 callsubr
            hintmask 01111100
            return
          </CharString>
          <CharString index="229">
            -723 rmoveto
            -4 callgsubr
            return
          </CharString>
          <CharString index="230">
            76 57 -61 74 hhcurveto
            95 48 73 0 hvcurveto
            return
          </CharString>
          <CharString index="231">
            151 1 139 -131 -21 83 69 return
          </CharString>
          <CharString index="232">
            -10 callgsubr
            70 106 callsubr
            return
          </CharString>
          <CharString index="233">
            -134 0 104 hstem
            38 474 vstem
            38 return
          </CharString>
          <CharString index="234">
            -405 735 -20 hstem
            1 276 vstem
            return
          </CharString>
          <CharString index="235">
            139 -63 42 -104 -104 -63 -42 -139 return
          </CharString>
          <CharString index="236">
            rlineto
            -117 hlineto
            return
          </CharString>
        <CharString name=".notdef">
          -182 0 50 600 50 hstem
          0 50 400 50 vstem
          0 vmoveto
          500 700 -500 hlineto
          420 -50 rmoveto
          -170 -255 -170 255 rlineto
          140 -300 rmoveto
          -170 -255 rlineto
          510 vlineto
          400 hmoveto
          -510 vlineto
          -170 255 rlineto
          -30 -45 rmoveto
          170 -255 rlineto
          -340 hlineto
          endchar
        </CharString>
        <CharString name="A">
          -85 callgsubr
          hstem
          2 718 vstem
          562 hmoveto
          -107 callgsubr
          endchar
        </CharString>
        <CharString name="AE">
          317 0 123 8 121 37 -47 callgsubr
          hstemhm
          -5 950 hintmask 10111000
          555 hmoveto
          19 callgsubr
          hintmask 11111000
          46 callsubr
        </CharString>
        <CharString name="AEacute">
          317 0 123 8 121 37 -47 callgsubr
          50 132 hstemhm
          -5 950 hintmask 10111100
          447 -87 callsubr
          29 -868 rmoveto
          19 callgsubr
          hintmask 11111100
          46 callsubr
        </CharString>
        <CharString name="Aacute">
          -85 callgsubr
          50 132 hstem
          2 718 vstem
          308 -87 callsubr
          175 -868 rmoveto
          -107 callgsubr
          endchar
        </CharString>
        <CharString name="Abreve">
          -85 callgsubr
          45 89 hstem
          2 718 vstem
          522 -49 callgsubr
          40 -868 rmoveto
          -107 callgsubr
          endchar
        </CharString>
        <CharString name="Acircumflex">
          -85 callgsubr
          47 135 hstem
          2 718 vstem
          48 callgsubr
          201 -802 rmoveto
          -107 callgsubr
          endchar
        </CharString>
        <CharString name="Adieresis">
          -85 callgsubr
          64 118 hstem
          197 -26 callgsubr
          vstem
          197 750 -99 callsubr
          155 -868 rmoveto
          -107 callgsubr
          endchar
        </CharString>
        <CharString name="Agrave">
          -85 callgsubr
          50 132 hstem
          2 718 vstem
          308 -44 callgsubr
          362 -865 rmoveto
          -107 callgsubr
          endchar
        </CharString>
        <CharString name="Amacron">
          -85 callgsubr
          70 88 hstem
          2 718 vstem
          208 756 -51 callgsubr
          354 -844 rmoveto
          -107 callgsubr
          endchar
        </CharString>
        <CharString name="Aogonek">
          39 -182 69 134 -80 callgsubr
          hstem
          522 105 vstem
          721 -168 rmoveto
          55 -36 vlineto
          -42 -16 19 32 24 13 23 12 15 hvcurveto
          68 hlineto
          -101 callgsubr
          49 -131 rlineto
          -22 -23 -18 -28 -43 vvcurveto
          -67 54 -21 62 27 27 5 9 29 vhcurveto
          -319 594 -103 callsubr
          endchar
        </CharString>
        <CharString name="Aring">
          -85 callgsubr
          15 57 88 57 hstemhm
          260 57 88 57 hintmask 00000000
          hintmask 11111110
          361 701 -86 callsubr
          157 -802 rmoveto
          158 hlineto
          hintmask 11101110
          -101 callgsubr
          -111 295 -103 callsubr
          endchar
        </CharString>
        <CharString name="Aringacute">
          39 21 -36 callgsubr
          436 -20 109 57 27 132 hstemhm
          260 57 88 57 hintmask 11101110
          302 861 -102 callgsubr
          -379 -993 rmoveto
          150 hlineto
          49 131 rlineto
          312 hlineto
          49 -131 rlineto
          158 hlineto
          -268 686 rlineto
          6 14 4 16 17 vvcurveto
          hintmask 11111110
          56 -38 45 -63 -63 -38 -45 -56 -17 3 -16 7 -14 vhcurveto
          92 2 rmoveto
          -27 -18 20 25 25 17 19 27 26 18 -19 -25 -25 -17 -20 -26 hvcurveto
          -116 -436 rmoveto
          65 174 rlineto
          13 34 30 101 0 vvcurveto
          5 hlineto
          0 30 -101 13 -34 vhcurveto
          65 -174 rlineto
          endchar
        </CharString>
        <CharString name="Atilde">
          -85 callgsubr
          60 6 callsubr
          193 10 callsubr
          hintmask 00000000
          hintmask 11101110
          529 75 callgsubr
          hintmask 11110110
          -55 callsubr
          hhcurveto
          hintmask 11101110
          -55 callgsubr
          hintmask 11110110
          -67 callsubr
          hintmask 11101110
          -66 callgsubr
          hintmask 11110110
          -56 callsubr
          hintmask 11101110
          -56 callgsubr
          hintmask 11110110
          33 -868 rmoveto
          -107 callgsubr
          endchar
        </CharString>
        <CharString name="B">
          39 0 123 168 121 6 callgsubr
          hstemhm
          67 146 290 149 -130 149 hintmask 11110100
          67 hmoveto
          393 hlineto
          116 95 62 130 84 -55 65 -76 15 hvcurveto
          4 vlineto
          hintmask 11111000
          63 21 49 56 79 vvcurveto
          101 -83 69 -109 vhcurveto
          -393 hlineto
          146 -123 rmoveto
          213 hlineto
          46 31 -26 -52 -40 -28 -33 -56 hvcurveto
          -206 hlineto
          -121 vmoveto
          hintmask 11110100
          215 hlineto
          64 30 -36 -47 -56 -38 -29 -48 hvcurveto
          -223 hlineto
          endchar
        </CharString>
        <CharString name="C">
          39 -84 callsubr
          33 callgsubr
          hintmask 11101000
          681 254 rmoveto
          -144 hlineto
          -91 -64 -52 -96 -128 -58 76 141 94 callsubr
          58 81 128 vhcurveto
          hintmask 11110000
          89 66 -52 -92 hvcurveto
          149 hlineto
          181 -137 86 -170 -206 -126 -113 -242 -252 126 -103 206 vhcurveto
          hintmask 11101000
          173 134 85 181 hvcurveto
          endchar
        </CharString>
        <CharString name="CR">
          -683 endchar
        </CharString>
        <CharString name="Cacute">
          39 29 callsubr
          51 callsubr
          308 -87 callsubr
          294 -614 -90 callgsubr
        </CharString>
        <CharString name="Cacute.loclPLK">
          39 78 callsubr
          131 51 callsubr
          308 16 callgsubr
          344 -613 -90 callgsubr
        </CharString>
        <CharString name="Ccaron">
          39 123 callgsubr
          51 callsubr
          300 733 -102 callsubr
          487 -614 -90 callgsubr
        </CharString>
        <CharString name="Ccedilla">
          39 61 callsubr
          24 120 -100 -21 22 -21 584 123 75 callsubr
          129 41 callgsubr
          27 149 -144 144 hintmask 1000011100100000
          265 -125 rmoveto
          hintmask 0100011100100000
          -49 vlineto
          hintmask 1010011101100000
          -49 callsubr
          hintmask 1000101110010000
          3 23 rlineto
          155 11 116 85 168 vvcurveto
          -144 hlineto
          hintmask 1001001100010000
          -91 -64 -52 -96 -128 -58 76 141 94 callsubr
          58 81 128 vhcurveto
          hintmask 1000011100100000
          89 66 -52 -92 hvcurveto
          149 hlineto
          181 -137 86 -170 -206 -126 -113 -242 -232 106 -105 177 -15 vhcurveto
          hintmask 1010011110100000
          -10 -68 rlineto
          hintmask 1010011101100000
          -11 callgsubr
          endchar
        </CharString>
        <CharString name="Ccircumflex">
          39 123 callgsubr
          51 callsubr
          48 callgsubr
          320 -548 -90 callgsubr
        </CharString>
        <CharString name="Cdotaccent">
          39 -84 callsubr
          41 130 75 callsubr
          102 135 104 149 -144 144 hintmask 11111010
          293 739 -95 callsubr
          388 -615 rmoveto
          -144 hlineto
          -91 -64 -52 -96 -128 -58 76 141 94 callsubr
          58 81 128 vhcurveto
          hintmask 11111100
          89 66 -52 -92 hvcurveto
          149 hlineto
          181 -137 86 -170 -206 -126 -113 -242 -252 126 -103 206 vhcurveto
          hintmask 11111010
          173 134 85 181 hvcurveto
          endchar
        </CharString>
        <CharString name="D">
          39 0 123 440 123 hstem
          67 145 318 149 vstem
          67 hmoveto
          -61 callgsubr
          endchar
        </CharString>
        <CharString name="Dcaron">
          39 74 callgsubr
          47 135 -42 callsubr
          318 149 vstem
          300 733 -102 callsubr
          -127 -868 rmoveto
          -61 callgsubr
          endchar
        </CharString>
        <CharString name="Dcroat">
          -51 callsubr
        </CharString>
        <CharString name="Delta">
          36 0 123 438 125 hstem
          1 718 vstem
          1 hmoveto
          718 hlineto
          -268 686 rlineto
          -182 hlineto
          132 -260 rmoveto
          78 -206 rlineto
          18 -48 23 -49 0 vvcurveto
          -328 hlineto
          0 23 47 19 50 vhcurveto
          76 206 rlineto
          13 34 30 101 0 vvcurveto
          5 hlineto
          0 30 -101 13 -34 vhcurveto
          endchar
        </CharString>
        <CharString name="E">
          -79 callgsubr
          95 callgsubr
          67 hmoveto
          -99 callgsubr
          endchar
        </CharString>
        <CharString name="Eacute">
          -79 callgsubr
          50 132 95 callgsubr
          281 -87 callsubr
          -293 -868 rmoveto
          -99 callgsubr
          endchar
        </CharString>
        <CharString name="Ebreve">
          -79 callgsubr
          45 89 95 callgsubr
          495 -49 callgsubr
          -428 -868 rmoveto
          -99 callgsubr
          endchar
        </CharString>
        <CharString name="Ecaron">
          -79 callgsubr
          47 135 95 callgsubr
          273 733 -102 callsubr
          -100 -868 rmoveto
          -99 callgsubr
          endchar
        </CharString>
        <CharString name="Ecircumflex">
          -79 callgsubr
          47 135 hstem
          67 145 vstem
          389 733 -89 callsubr
        </CharString>
        <CharString name="Edieresis">
          -79 callgsubr
          64 118 -10 callsubr
          -42 -26 callgsubr
          hintmask 00000000
          hintmask 11110110
          170 750 -99 callsubr
          hintmask 11111010
          -313 -868 rmoveto
          -99 callgsubr
          endchar
        </CharString>
        <CharString name="Edotaccent">
          -79 callgsubr
          53 130 -42 callsubr
          54 135 vstem
          266 739 -95 callsubr
          -199 -869 rmoveto
          -99 callgsubr
          endchar
        </CharString>
        <CharString name="Egrave">
          -79 callgsubr
          50 132 95 callgsubr
          281 -44 callgsubr
          -106 -865 rmoveto
          -99 callgsubr
          endchar
        </CharString>
        <CharString name="Emacron">
          -79 callgsubr
          70 88 hstem
          67 97 callsubr
          -114 -844 rmoveto
          -99 callgsubr
          endchar
        </CharString>
        <CharString name="Eng">
          71 callsubr
          419 -70 rmoveto
          -96 vlineto
          -8 23 43 -8 32 hhcurveto
          107 31 71 70 hvcurveto
          727 0 callgsubr
          265 -373 rlineto
          -27 vlineto
          -28 -15 -15 -28 vhcurveto
          endchar
        </CharString>
        <CharString name="Eogonek">
          -16 -182 69 113 -78 callsubr
          -42 callsubr
          223 177 vstem
          612 -168 rmoveto
          55 -24 vlineto
          -33 -15 18 19 31 45 30 27 15 hvcurveto
          123 -400 166 350 123 -350 151 394 123 -539 -686 442 vlineto
          -40 -24 -34 -29 -47 vvcurveto
          -62 57 -20 49 24 22 5 9 25 vhcurveto
          endchar
        </CharString>
        <CharString name="Eth">
          -51 callsubr
        </CharString>
        <CharString name="Euro">
          -12 112 127 81 70 81 127 112 hstem
          68 139 vstem
          522 6 rmoveto
          110 vlineto
          -11 -29 -31 -5 -34 hhcurveto
          -92 -73 48 79 -35 hvcurveto
          222 81 -243 hlineto
          -1 11 -1 12 0 12 0 12 1 13 10 flex1
          243 81 -222 hlineto
          79 35 73 48 92 hhcurveto
          34 31 -6 -10 29 hvcurveto
          110 vlineto
          11 -37 -41 7 -41 hhcurveto
          -158 -121 -93 -146 -42 hvcurveto
          -72 -81 58 hlineto
          -1 -12 0 -11 0 -12 0 -12 0 -12 -11 flex1
          -58 -81 72 hlineto
          -147 42 121 -92 158 hhcurveto
          41 41 6 12 37 hvcurveto
          endchar
        </CharString>
        <CharString name="F">
          -72 21 -21 271 123 169 123 95 callgsubr
          212 271 rmoveto
          315 123 -315 169 352 123 -497 -686 145 hlineto
          endchar
        </CharString>
        <CharString name="G">
          -37 callgsubr
          75 callsubr
          381 145 hintmask 00000000
          hintmask 01111100
          617 hmoveto
          -18 callsubr
          hintmask 10111100
          -98 callsubr
          endchar
        </CharString>
        <CharString name="G_tilde.loclGUA">
          -37 callgsubr
          48 85 -48 85 75 callsubr
          30 10 callsubr
          15 145 7 callsubr
          hintmask 1011011011000000
          557 75 callgsubr
          hintmask 1011101011000000
          -55 callsubr
          hhcurveto
          hintmask 1011011101000000
          -55 callgsubr
          hintmask 1011101101000000
          -67 callsubr
          hintmask 1011011101000000
          -66 callgsubr
          hintmask 1011101011000000
          -56 callsubr
          hintmask 1011011011000000
          -56 callgsubr
          hintmask 0111001001000000
          60 -868 rmoveto
          -18 callsubr
          hintmask 1011001001000000
          -98 callsubr
          endchar
        </CharString>
        <CharString name="Gbreve">
          -37 callgsubr
          33 89 53 callsubr
          550 -49 callgsubr
          hintmask 01111110
          67 -868 rmoveto
          -18 callsubr
          hintmask 10111110
          -98 callsubr
          endchar
        </CharString>
        <CharString name="Gcaron">
          -37 callgsubr
          35 135 53 callsubr
          328 733 -102 callsubr
          hintmask 01111110
          395 -868 rmoveto
          -18 callsubr
          hintmask 10111110
          -98 callsubr
          endchar
        </CharString>
        <CharString name="Gcircumflex">
          -37 callgsubr
          35 135 53 callsubr
          49 callsubr
          hintmask 01111110
          228 -802 rmoveto
          -18 callsubr
          hintmask 10111110
          -98 callsubr
          endchar
        </CharString>
        <CharString name="Gcommaaccent">
          95 -138 98 28 -24 callsubr
          75 callsubr
          129 138 114 145 hintmask 00000000
          hintmask 00111111
          617 hmoveto
          -18 callsubr
          hintmask 01011111
          -98 callsubr
          -281 -306 rmoveto
          72 hlineto
          hintmask 11011111
          63 104 rlineto
          86 -138 -98 55 vlineto
          endchar
        </CharString>
        <CharString name="Gdotaccent">
          -37 callgsubr
          41 130 75 callsubr
          130 135 116 145 hintmask 10111111
          321 739 -95 callsubr
          hintmask 01111111
          296 -869 rmoveto
          -18 callsubr
          hintmask 10111111
          -98 callsubr
          endchar
        </CharString>
        <CharString name="H">
          39 21 -21 289 125 272 -20 hstem
          67 145 298 34 callgsubr
          endchar
        </CharString>
        <CharString name="Hbar">
          39 21 -21 289 125 93 91 -91 179 -10 callsubr
          298 145 hintmask 11011100
          510 hmoveto
          145 507 60 hlineto
          hintmask 11101100
          91 -60 120 callsubr
          -298 120 callsubr
          -60 vlineto
          hintmask 11011100
          -91 60 -507 145 289 298 vlineto
          218 vmoveto
          -93 -298 93 vlineto
          endchar
        </CharString>
        <CharString name="Hcircumflex">
          39 21 -21 289 125 272 13 callgsubr
          -802 rmoveto
          56 callgsubr
          endchar
        </CharString>
        <CharString name="I">
          24 callgsubr
          95 callgsubr
          67 hmoveto
          -29 callgsubr
        </CharString>
        <CharString name="IJ">
          151 -12 122 -110 236 -215 11 callgsubr
          -10 callsubr
          91 81 callsubr
          hintmask 00000000
          hintmask 00111110
          67 hmoveto
          43 callsubr
          560 hmoveto
          hintmask 10011110
          -6 callgsubr
          hintmask 01011110
          41 -144 -43 vlineto
          hintmask 10011110
          -42 callgsubr
        </CharString>
        <CharString name="Iacute">
          -405 27 callgsubr
          67 145 vstem
          86 -87 callsubr
          -98 37 callsubr
        </CharString>
        <CharString name="Iacute_J.loclNLD">
          151 -12 122 -110 236 -215 11 callgsubr
          70 132 -10 callsubr
          91 81 callsubr
          hintmask 10011111
          86 -87 callsubr
          482 -132 -102 callgsubr
          hintmask 00111111
          -659 -868 rmoveto
          43 callsubr
          560 hmoveto
          hintmask 10011111
          -6 callgsubr
          hintmask 01011111
          41 -144 -43 vlineto
          hintmask 10011111
          -42 callgsubr
        </CharString>
        <CharString name="Ibreve">
          24 callgsubr
          65 89 95 callgsubr
          300 -49 callgsubr
          -233 37 callsubr
        </CharString>
        <CharString name="Icircumflex">
          24 callgsubr
          67 135 95 callgsubr
          194 -82 callgsubr
          -72 -802 -34 callgsubr
        </CharString>
        <CharString name="Idieresis">
          24 callgsubr
          84 118 hstemhm
          -25 122 callgsubr
          hintmask 11110000
          -25 750 rmoveto
          hintmask 11101000
          118 118 hlineto
          hintmask 11110000
          -118 hlineto
          hintmask 11101000
          210 -118 rmoveto
          hintmask 11100100
          119 118 hlineto
          hintmask 11101000
          -119 hlineto
          -118 37 callsubr
        </CharString>
        <CharString name="Idotaccent">
          24 callgsubr
          73 130 95 callgsubr
          71 739 -95 callsubr
          -4 -869 -34 callgsubr
        </CharString>
        <CharString name="Igrave">
          -405 27 callgsubr
          67 145 vstem
          86 -44 callgsubr
          89 -865 -34 callgsubr
        </CharString>
        <CharString name="Imacron">
          24 callgsubr
          90 88 95 callgsubr
          -14 756 -51 callgsubr
          81 -844 -34 callgsubr
        </CharString>
        <CharString name="Iogonek">
          -405 -182 69 134 11 callgsubr
          95 callgsubr
          233 -168 rmoveto
          60 callsubr
          24 13 23 12 15 hvcurveto
          26 64 callgsubr
          -686 28 hlineto
          -21 -23 -18 -28 -43 2 callgsubr
          endchar
        </CharString>
        <CharString name="Itilde">
          24 callgsubr
          80 6 callsubr
          -29 121 callgsubr
          307 75 callgsubr
          hintmask 11100110
          -55 callsubr
          hhcurveto
          hintmask 11011100
          -55 callgsubr
          hintmask 11101100
          -22 callsubr
          -240 37 callsubr
        </CharString>
        <CharString name="J">
          -12 122 576 -20 hstem
          25 81 callsubr
          vstem
          349 686 rmoveto
          -6 callgsubr
          41 -144 -43 vlineto
          -42 callgsubr
        </CharString>
        <CharString name="Jcircumflex">
          -12 122 576 -20 67 135 hstem
          25 81 callsubr
          vstem
          477 -82 callgsubr
          -73 -116 rmoveto
          -6 callgsubr
          41 -144 -43 vlineto
          -42 callgsubr
        </CharString>
        <CharString name="K">
          93 callsubr
          hstem
          67 145 14 callgsubr
          endchar
        </CharString>
        <CharString name="Kcommaaccent">
          115 callgsubr
          145 80 138 14 callgsubr
          -45 -535 rmoveto
          -70 callsubr
        </CharString>
        <CharString name="L">
          -72 0 126 560 -20 95 callgsubr
          67 hmoveto
          2 callsubr
          endchar
        </CharString>
        <CharString name="Lacute">
          -72 0 126 560 103 callsubr
          vstem
          87 -87 callsubr
          -99 -868 rmoveto
          2 callsubr
          endchar
        </CharString>
        <CharString name="Lcaron">
          -72 0 126 433 127 -42 callsubr
          142 138 vstem
          67 hmoveto
          2 callsubr
          287 -244 15 callgsubr
          endchar
        </CharString>
        <CharString name="Lcommaaccent">
          -72 -138 98 40 126 560 -20 -42 callsubr
          44 138 vstem
          67 hmoveto
          2 callsubr
          192 -916 rmoveto
          -70 callsubr
        </CharString>
        <CharString name="Ldot">
          -72 0 126 263 137 160 -20 -42 callsubr
          131 138 vstem
          67 hmoveto
          2 callsubr
          276 -297 rmoveto
          -40 callsubr
          endchar
        </CharString>
        <CharString name="Lslash">
          -72 0 126 411 -20 169 -20 95 callgsubr
          67 hmoveto
          515 126 -370 216 hlineto
          141 93 rlineto
          102 vlineto
          -141 -93 rlineto
          242 -145 -338 vlineto
          -67 -44 rlineto
          -102 vlineto
          67 44 rlineto
          endchar
        </CharString>
        <CharString name="M">
          150 0 153 -132 -21 547 139 hstemhm
          67 140 414 145 hintmask 01111000
          621 hmoveto
          145 686 -216 hlineto
          -96 -378 rlineto
          hintmask 10111000
          -10 -40 -18 -115 0 vvcurveto
          -5 hlineto
          0 -20 110 -12 45 vhcurveto
          -96 378 rlineto
          -226 -686 140 437 hlineto
          27 -6 83 0 vhcurveto
          5 hlineto
          139 -547 rlineto
          138 hlineto
          139 547 rlineto
          5 hlineto
          0 -6 -79 -31 vvcurveto
          endchar
        </CharString>
        <CharString name="N">
          93 callsubr
          hstem
          43 callgsubr
          vstem
          -8 callgsubr
          endchar
        </CharString>
        <CharString name="NULL">
          -683 endchar
        </CharString>
        <CharString name="Nacute">
          39 27 callgsubr
          43 callgsubr
          vstem
          308 -87 callsubr
          127 -868 rmoveto
          -97 callsubr
          endchar
        </CharString>
        <CharString name="Nacute.loclPLK">
          93 callsubr
          70 131 hstem
          43 callgsubr
          vstem
          308 16 callgsubr
          177 -867 rmoveto
          -97 callsubr
          endchar
        </CharString>
        <CharString name="Ncaron">
          93 callsubr
          67 135 hstem
          43 callgsubr
          vstem
          300 733 -102 callsubr
          320 -868 rmoveto
          -97 callsubr
          endchar
        </CharString>
        <CharString name="Ncommaaccent">
          115 callgsubr
          141 84 138 84 141 vstem
          -8 callgsubr
          46 -606 rmoveto
          -70 callsubr
        </CharString>
        <CharString name="Ntilde">
          93 callsubr
          80 6 callsubr
          67 141 -15 10 callsubr
          -15 141 hintmask 00000000
          hintmask 11011010
          529 75 callgsubr
          hintmask 11101010
          -55 callsubr
          hhcurveto
          hintmask 11010101
          -55 callgsubr
          hintmask 11100101
          -67 callsubr
          hintmask 11010101
          -66 callgsubr
          hintmask 11101010
          -56 callsubr
          hintmask 11011010
          -56 callgsubr
          hintmask 11101001
          -15 -868 rmoveto
          -97 callsubr
          endchar
        </CharString>
        <CharString name="O">
          -67 callgsubr
          -31 callsubr
          389 -12 rmoveto
          -107 callsubr
          endchar
        </CharString>
        <CharString name="OE">
          317 -12 123 -111 -78 callsubr
          -111 123 75 callsubr
          299 145 hintmask 01110110
          490 hmoveto
          455 123 -310 166 260 123 -260 151 304 123 -449 hlineto
          hintmask 10101110
          -54 vlineto
          45 -47 -57 21 -73 hhcurveto
          -169 -102 -123 -232 -232 102 -123 169 69 59 21 44 49 hvcurveto
          -147 58 rmoveto
          -108 -44 76 156 156 44 76 108 91 56 -62 -170 -170 -56 -62 -91 hvcurveto
          endchar
        </CharString>
        <CharString name="Oacute">
          -12 callsubr
          336 -87 callsubr
          -26 -880 rmoveto
          -107 callsubr
          endchar
        </CharString>
        <CharString name="Oacute.loclPLK">
          95 78 callsubr
          131 -31 callsubr
          336 16 callgsubr
          24 -879 rmoveto
          -107 callsubr
          endchar
        </CharString>
        <CharString name="Obreve">
          -67 callgsubr
          33 89 -31 callsubr
          550 -49 callgsubr
          -161 -880 rmoveto
          -107 callsubr
          endchar
        </CharString>
        <CharString name="Ocircumflex">
          95 123 callgsubr
          -31 callsubr
          49 callsubr
          -814 vmoveto
          -107 callsubr
          endchar
        </CharString>
        <CharString name="Odieresis">
          -67 callgsubr
          52 118 hstem
          8 callgsubr
          34 -26 callgsubr
          34 149 vstem
          225 750 -99 callsubr
          -46 -880 rmoveto
          -107 callsubr
          endchar
        </CharString>
        <CharString name="Ograve">
          -12 callsubr
          336 -44 callgsubr
          161 -877 rmoveto
          -107 callsubr
          endchar
        </CharString>
        <CharString name="Ohorn">
          -67 callgsubr
          -7 137 78 callgsubr
          -98 158 hintmask 00000000
          hintmask 10110100
          639 828 -36 callsubr
          hintmask 11010100
          -74 callgsubr
          hintmask 11011000
          -81 callgsubr
          96 -21 76 -39 57 hvcurveto
          hintmask 10110100
          -43 callsubr
          hintmask 11011000
          -78 callgsubr
          endchar
        </CharString>
        <CharString name="Ohungarumlaut">
          -12 callsubr
          249 -87 callsubr
          96 -132 -102 callgsubr
          -114 -880 rmoveto
          -107 callsubr
          endchar
        </CharString>
        <CharString name="Omacron">
          -67 callgsubr
          58 88 -31 callsubr
          236 756 -51 callgsubr
          153 -856 rmoveto
          -107 callsubr
          endchar
        </CharString>
        <CharString name="Omega">
          -71 callsubr
        </CharString>
        <CharString name="Oslash">
          -67 callgsubr
          37 -20 -31 callsubr
          47 -49 39 callsubr
          -54 callgsubr
        </CharString>
        <CharString name="Oslashacute">
          -67 callgsubr
          37 -20 22 54 callsubr
          hintmask 00000000
          hintmask 11011100
          343 737 -102 callgsubr
          -375 -918 39 callsubr
          hintmask 11101100
          -54 callgsubr
        </CharString>
        <CharString name="Otilde">
          -67 callgsubr
          48 85 -48 85 75 callsubr
          30 10 callsubr
          31 149 hintmask 00000000
          hintmask 11011011
          557 75 callgsubr
          hintmask 11101011
          -55 callsubr
          hhcurveto
          hintmask 11011101
          -55 callgsubr
          hintmask 11101101
          -67 callsubr
          hintmask 11011101
          -66 callgsubr
          hintmask 11101011
          -56 callsubr
          hintmask 11011011
          -56 callgsubr
          hintmask 11101001
          -168 -880 rmoveto
          -107 callsubr
          endchar
        </CharString>
        <CharString name="P">
          -16 21 -21 236 123 204 123 -42 callsubr
          266 147 vstem
          67 hmoveto
          145 236 87 callgsubr
          -327 hlineto
          314 -327 73 callgsubr
        </CharString>
        <CharString name="Q">
          -67 callgsubr
          -31 callsubr
          527 -130 rmoveto
          191 hlineto
          -156 150 rlineto
          111 49 64 106 168 vvcurveto
          7 callgsubr
          113 -216 -215 -132 -113 -242 -242 132 -113 215 9 9 0 1 9 vhcurveto
          172 369 rmoveto
          -30 vlineto
          -71 callgsubr
          endchar
        </CharString>
        <CharString name="R">
          39 21 100 callsubr
          303 -20 callgsubr
          endchar
        </CharString>
        <CharString name="Racute">
          23 callgsubr
          50 132 -42 callsubr
          303 147 vstem
          308 -87 callsubr
          138 -868 rmoveto
          -95 callgsubr
          endchar
        </CharString>
        <CharString name="Rcaron">
          23 callgsubr
          47 135 -42 callsubr
          303 147 vstem
          300 733 -102 callsubr
          331 -868 rmoveto
          -95 callgsubr
          endchar
        </CharString>
        <CharString name="Rcommaaccent">
          39 -138 98 61 100 callsubr
          80 138 85 -20 callgsubr
          83 -607 rmoveto
          -70 callsubr
        </CharString>
        <CharString name="S">
          -16 -12 123 464 123 9 callgsubr
          hintmask 00000000
          hintmask 11011000
          3 callgsubr
          hintmask 11010100
          -44 callsubr
          hintmask 11100100
          -95 -53 38 58 hvcurveto
          5 1 9 2 vvcurveto
          -147 hlineto
          -5 -1 -9 -8 vvcurveto
          -141 135 -72 153 171 122 60 154 vhcurveto
          hintmask 11010100
          -43 callgsubr
          hintmask 11011000
          79 49 -31 -51 hvcurveto
          endchar
        </CharString>
        <CharString name="Sacute">
          -16 29 callsubr
          25 callgsubr
          281 -87 callsubr
          hintmask 11101100
          103 -384 -94 callsubr
        </CharString>
        <CharString name="Sacute.loclPLK">
          -16 78 callsubr
          131 25 callgsubr
          281 16 callgsubr
          hintmask 11101100
          153 -383 -94 callsubr
        </CharString>
        <CharString name="Scaron">
          -16 123 callgsubr
          25 callgsubr
          273 733 -102 callsubr
          hintmask 11101100
          296 -384 -94 callsubr
        </CharString>
        <CharString name="Scedilla">
          -16 61 callsubr
          23 121 107 callsubr
          82 41 callgsubr
          -9 144 -130 146 hintmask 1001101000100000
          232 -125 rmoveto
          hintmask 0101101000100000
          -49 vlineto
          hintmask 1011101010000000
          -49 callsubr
          hintmask 1001101100100000
          3 23 rlineto
          146 10 100 62 140 -43 callgsubr
          hintmask 1001101001000000
          79 49 -31 -51 hvcurveto
          -9 144 12 vlineto
          141 -122 61 -148 -161 -117 -62 -130 vhcurveto
          hintmask 1001101000100000
          -44 callsubr
          hintmask 1001110000100000
          -95 -53 38 58 hvcurveto
          5 1 9 2 vvcurveto
          -147 hlineto
          -5 -1 -9 -8 vvcurveto
          -129 113 -72 137 -10 vhcurveto
          hintmask 1011101100100000
          -10 -67 rlineto
          hintmask 1011101010000000
          -11 callgsubr
          endchar
        </CharString>
        <CharString name="Scircumflex">
          -16 123 callgsubr
          25 callgsubr
          48 callsubr
          hintmask 11101100
          129 -318 -94 callsubr
        </CharString>
        <CharString name="Scommaaccent">
          -16 -138 98 28 123 107 callsubr
          60 138 60 144 -130 146 hintmask 00000000
          hintmask 01101110
          3 callgsubr
          hintmask 01101101
          -44 callsubr
          hintmask 01110101
          -95 -53 38 58 hvcurveto
          5 1 9 2 vvcurveto
          -147 hlineto
          -5 -1 -9 -8 vvcurveto
          -141 135 -72 153 171 122 60 154 vhcurveto
          hintmask 01101101
          -43 callgsubr
          hintmask 11101110
          79 49 -31 -51 hvcurveto
          -195 -723 rmoveto
          -70 callsubr
        </CharString>
        <CharString name="T">
          -72 21 -13 callgsubr
          endchar
        </CharString>
        <CharString name="Tbar">
          -72 21 -21 352 91 118 125 111 callsubr
          233 hmoveto
          145 352 89 91 -89 118 212 125 -569 -125 212 -118 -89 -91 89 hlineto
          endchar
        </CharString>
        <CharString name="Tcaron">
          -72 21 -21 561 125 47 135 111 callsubr
          245 733 -102 callsubr
          94 -868 rmoveto
          40 callsubr
          endchar
        </CharString>
        <CharString name="Thorn">
          -16 21 -21 129 123 204 123 107 -20 -42 callsubr
          266 147 vstem
          212 129 rmoveto
          87 callgsubr
          -182 107 -145 -686 145 hlineto
          169 252 73 callgsubr
        </CharString>
        <CharString name="U">
          -22 callgsubr
          68 callsubr
          510 686 rmoveto
          -424 vlineto
          -104 callsubr
          431 vlineto
          endchar
        </CharString>
        <CharString name="Uacute">
          39 -12 123 575 -20 70 132 68 callsubr
          308 -87 callsubr
          123 -182 rmoveto
          -424 vlineto
          -104 callsubr
          431 vlineto
          endchar
        </CharString>
        <CharString name="Ubreve">
          -22 callgsubr
          65 89 68 callsubr
          522 -49 callgsubr
          -12 -182 rmoveto
          -424 vlineto
          -104 callsubr
          431 vlineto
          endchar
        </CharString>
        <CharString name="Ucircumflex">
          39 -12 123 575 13 callgsubr
          -116 rmoveto
          -424 vlineto
          -104 callsubr
          431 vlineto
          endchar
        </CharString>
        <CharString name="Udieresis">
          -22 callgsubr
          84 118 -10 callsubr
          -15 -26 callgsubr
          -16 145 129 callgsubr
          197 750 -99 callsubr
          hintmask 11110010
          103 -182 rmoveto
          -424 vlineto
          -104 callsubr
          431 vlineto
          endchar
        </CharString>
        <CharString name="Ugrave">
          39 -12 123 575 -20 70 132 68 callsubr
          308 -44 callgsubr
          310 -179 rmoveto
          -424 vlineto
          -104 callsubr
          431 vlineto
          endchar
        </CharString>
        <CharString name="Uhorn">
          -60 callsubr
          endchar
        </CharString>
        <CharString name="Uhungarumlaut">
          39 -12 123 575 -20 70 132 68 callsubr
          221 -87 callsubr
          96 -132 -102 callgsubr
          35 -182 rmoveto
          -424 vlineto
          -104 callsubr
          431 vlineto
          endchar
        </CharString>
        <CharString name="Umacron">
          -22 callgsubr
          90 88 68 callsubr
          208 756 -51 callgsubr
          302 -158 rmoveto
          -424 vlineto
          -104 callsubr
          431 vlineto
          endchar
        </CharString>
        <CharString name="Uogonek">
          39 -182 69 101 34 callsubr
          -10 callsubr
          120 177 1 145 hintmask 00000000
          hintmask 11111000
          509 -168 rmoveto
          60 callsubr
          23 13 23 11 15 hvcurveto
          hintmask 11110100
          123 28 71 86 142 vvcurveto
          431 -145 -424 vlineto
          -100 -56 -51 -94 -94 -54 51 100 vhcurveto
          424 -145 -431 vlineto
          -177 110 -90 183 vhcurveto
          hintmask 11111000
          -15 -21 -13 -25 108 callsubr
          endchar
        </CharString>
        <CharString name="Uring">
          -22 callgsubr
          35 57 88 57 -10 callsubr
          48 57 88 57 48 145 hintmask 00000000
          hintmask 11111111
          361 701 -86 callsubr
          hintmask 11011111
          105 -116 rmoveto
          -424 vlineto
          -104 callsubr
          431 vlineto
          endchar
        </CharString>
        <CharString name="Utilde">
          -22 callgsubr
          80 85 -48 85 -10 callsubr
          -19 10 callsubr
          -19 145 hintmask 00000000
          hintmask 11011010
          529 75 callgsubr
          hintmask 11101010
          -55 callsubr
          hhcurveto
          hintmask 11011001
          -55 callgsubr
          hintmask 11101001
          -70 -28 -57 -65 hvcurveto
          hintmask 11100101
          70 hlineto
          hintmask 11010101
          -66 callgsubr
          hintmask 11101010
          -56 callsubr
          hintmask 11011010
          -56 callgsubr
          hintmask 11101001
          -19 -182 rmoveto
          -424 vlineto
          -104 callsubr
          431 vlineto
          endchar
        </CharString>
        <CharString name="V">
          -16 0 168 -147 11 callgsubr
          hstemhm
          4 658 hintmask 01110000
          252 hmoveto
          162 hlineto
          248 686 rlineto
          -151 hlineto
          -128 -376 rlineto
          hintmask 10110000
          -12 -34 -31 -108 0 vvcurveto
          -5 hlineto
          0 -33 108 -12 34 vhcurveto
          -129 376 rlineto
          -157 hlineto
          endchar
        </CharString>
        <CharString name="W">
          22 callsubr
          hstemhm
          2 940 hintmask 10110000
          603 hmoveto
          -91 callsubr
          hintmask 11010000
          111 437 rlineto
          7 29 10 68 0 vvcurveto
          4 hlineto
          0 8 -62 9 -35 vhcurveto
          endchar
        </CharString>
        <CharString name="Wacute">
          22 callsubr
          70 132 hstemhm
          2 940 hintmask 10111000
          419 -87 callsubr
          105 -868 -86 callgsubr
        </CharString>
        <CharString name="Wcircumflex">
          22 callsubr
          67 135 hstemhm
          2 940 hintmask 10111000
          527 -82 callgsubr
          131 -802 -86 callgsubr
        </CharString>
        <CharString name="Wdieresis">
          22 callsubr
          84 118 hstemhm
          308 -26 callgsubr
          hintmask 10111100
          308 750 -99 callsubr
          85 -868 -73 callsubr
          hintmask 11011100
          111 437 rlineto
          7 29 10 68 0 vvcurveto
          4 hlineto
          0 8 -62 9 -35 vhcurveto
          endchar
        </CharString>
        <CharString name="Wgrave">
          22 callsubr
          70 132 hstemhm
          2 940 hintmask 10111000
          419 -44 callgsubr
          292 -865 -86 callgsubr
        </CharString>
        <CharString name="X">
          81 callgsubr
          hstem
          0 666 vstem
          491 hmoveto
          175 hlineto
          -238 362 216 324 rlineto
          -164 hlineto
          -138 -222 rlineto
          -5 hlineto
          -139 222 rlineto
          -176 hlineto
          215 -326 -237 -360 rlineto
          164 hlineto
          160 258 rlineto
          5 hlineto
          endchar
        </CharString>
        <CharString name="Y">
          81 callgsubr
          hstem
          262 145 vstem
          262 hmoveto
          -93 callsubr
          endchar
        </CharString>
        <CharString name="Y.loclGUA">
          30 callsubr
          -42 callsubr
          243 145 vstem
          451 288 -100 callsubr
        </CharString>
        <CharString name="Yacute">
          -16 27 callgsubr
          262 145 vstem
          281 -87 callsubr
          -98 -868 rmoveto
          -93 callsubr
          endchar
        </CharString>
        <CharString name="Yacute.loclGUA">
          30 callsubr
          70 132 hstem
          67 145 243 145 vstem
          281 -87 callsubr
          91 -580 -100 callsubr
        </CharString>
        <CharString name="Ycircumflex">
          81 callgsubr
          67 135 hstem
          262 36 callsubr
          -72 -802 rmoveto
          -93 callsubr
          endchar
        </CharString>
        <CharString name="Ycircumflex.loclGUA">
          30 callsubr
          67 135 -42 callsubr
          243 36 callsubr
          117 -514 -100 callsubr
        </CharString>
        <CharString name="Ydieresis">
          81 callgsubr
          84 118 hstemhm
          170 122 callgsubr
          hintmask 11110100
          170 750 -99 callsubr
          hintmask 11101000
          -118 -868 rmoveto
          -93 callsubr
          endchar
        </CharString>
        <CharString name="Ydieresis.loclGUA">
          30 callsubr
          84 118 -10 callsubr
          -42 -26 callgsubr
          -44 145 hintmask 10111001
          170 750 rmoveto
          hintmask 10110101
          118 118 hlineto
          hintmask 10111010
          -118 hlineto
          210 -118 rmoveto
          hintmask 10111001
          119 118 hlineto
          hintmask 10111010
          -119 hlineto
          hintmask 11111001
          71 -580 -100 callsubr
        </CharString>
        <CharString name="Ygrave">
          -16 27 callgsubr
          262 145 vstem
          281 -44 callgsubr
          89 -865 rmoveto
          -93 callsubr
          endchar
        </CharString>
        <CharString name="Ygrave.loclGUA">
          30 callsubr
          70 132 hstem
          67 145 243 145 vstem
          281 -44 callgsubr
          278 -577 -100 callsubr
        </CharString>
        <CharString name="Z">
          59 callgsubr
          hstem
          17 569 vstem
          17 hmoveto
          -81 callsubr
          endchar
        </CharString>
        <CharString name="Zacute">
          59 callgsubr
          50 132 hstem
          17 569 vstem
          253 -87 callsubr
          -315 -868 rmoveto
          -81 callsubr
          endchar
        </CharString>
        <CharString name="Zacute.loclPLK">
          59 callgsubr
          50 131 hstem
          17 569 vstem
          253 16 callgsubr
          -265 -867 rmoveto
          -81 callsubr
          endchar
        </CharString>
        <CharString name="Zcaron">
          59 callgsubr
          47 135 hstem
          17 569 vstem
          245 733 -102 callsubr
          -122 -868 rmoveto
          -81 callsubr
          endchar
        </CharString>
        <CharString name="Zdotaccent">
          59 callgsubr
          53 130 hstem
          238 135 vstem
          238 739 -95 callsubr
          -221 -869 rmoveto
          -81 callsubr
          endchar
        </CharString>
        <CharString name="a">
          -75 callgsubr
          -68 callsubr
          hintmask 10111010
          547 4 rmoveto
          hintmask 01110110
          -106 callsubr
          hintmask 10111010
          -104 callgsubr
          endchar
        </CharString>
        <CharString name="aacute">
          -20 callsubr
          225 -92 callgsubr
          243 -719 rmoveto
          hintmask 01111011
          -106 callsubr
          hintmask 10111101
          -104 callgsubr
          endchar
        </CharString>
        <CharString name="abreve">
          -12 -40 callgsubr
          -68 callsubr
          hintmask 1011011010000000
          439 84 callsubr
          hintmask 1011101010000000
          -53 callgsubr
          hintmask 1011011010000000
          3 callsubr
          hintmask 0111010110000000
          -106 callsubr
          hintmask 1011011010000000
          -104 callgsubr
          endchar
        </CharString>
        <CharString name="acircumflex">
          -75 callgsubr
          50 135 -66 66 -68 callsubr
          hintmask 1011101010000000
          333 588 -105 callsubr
          hintmask 1011011010000000
          59 callsubr
          hintmask 0111100110000000
          -106 callsubr
          hintmask 1011101010000000
          -188 -130 -44 -142 -128 106 -20 57 85 44 28 41 35 hvcurveto
          6 hlineto
          -44 13 39 -25 54 hhcurveto
          hintmask 1011011010000000
          39 26 9 7 14 hvcurveto
          hintmask 1011101010000000
          -72 callgsubr
        </CharString>
        <CharString name="acute">
          116 callsubr
          75 213 vstem
          75 -92 callgsubr
          endchar
        </CharString>
        <CharString name="acute.loclPLK">
          -350 591 131 hstem
          90 153 vstem
          90 -5 callgsubr
          endchar
        </CharString>
        <CharString name="adieresis">
          -75 callgsubr
          67 118 -70 callgsubr
          -74 -26 callgsubr
          -96 137 hintmask 1011100101000000
          114 605 rmoveto
          118 118 -118 hlineto
          hintmask 1011100110000000
          210 -118 rmoveto
          119 118 -119 hlineto
          hintmask 1011100101000000
          223 -719 rmoveto
          hintmask 0111101001000000
          -106 callsubr
          hintmask 1011110001000000
          -188 -130 -44 -142 -128 106 -20 57 85 44 28 41 35 hvcurveto
          6 hlineto
          -44 13 39 -25 54 hhcurveto
          hintmask 1011100101000000
          39 26 9 7 14 hvcurveto
          hintmask 1011110001000000
          -72 callgsubr
        </CharString>
        <CharString name="ae">
          124 callgsubr
          -70 callgsubr
          183 137 88 callgsubr
          hintmask 11110110
          508 231 56 callsubr
          hintmask 11101110
          46 callgsubr
          hintmask 11110110
          -46 callgsubr
        </CharString>
        <CharString name="aeacute">
          124 callgsubr
          53 132 -70 callgsubr
          183 137 88 callgsubr
          hintmask 11111011
          392 -92 callgsubr
          37 -492 56 callsubr
          hintmask 11110111
          46 callgsubr
          hintmask 11111011
          -46 callgsubr
        </CharString>
        <CharString name="agrave">
          -20 callsubr
          225 -27 callgsubr
          430 -716 rmoveto
          hintmask 01111011
          -106 callsubr
          hintmask 10111101
          -104 callgsubr
          endchar
        </CharString>
        <CharString name="amacron">
          -75 callgsubr
          73 88 97 callgsubr
          125 611 -51 callgsubr
          422 -695 rmoveto
          hintmask 01111011
          -106 callsubr
          hintmask 10111101
          -104 callgsubr
          endchar
        </CharString>
        <CharString name="ampersand">
          39 -12 111 193 112 183 111 hstemhm
          43 141 -124 139 260 137 hintmask 11110100
          596 292 rmoveto
          95 112 -232 -203 hlineto
          -65 -43 -37 -92 -90 -50 31 67 77 60 18 66 vhcurveto
          66 112 -69 hlineto
          hintmask 11101100
          -58 -50 32 56 59 43 36 90 84 43 -29 -57 hvcurveto
          -19 137 28 vlineto
          114 -107 74 -155 -164 -110 -66 -122 -86 52 -39 71 -29 vhcurveto
          -4 vlineto
          hintmask 11110100
          -80 -22 -60 -50 -96 vvcurveto
          -122 116 -74 163 179 95 85 131 vhcurveto
          endchar
        </CharString>
        <CharString name="aogonek">
          -182 69 101 108 -82 -21 238 91 110 106 -68 callsubr
          -114 177 7 callsubr
          hintmask 1101110010000000
          547 -168 rmoveto
          55 -24 vlineto
          -38 -10 20 21 32 43 28 29 16 hvcurveto
          96 vlineto
          hintmask 1101101100000000
          -28 hlineto
          -18 -17 10 25 hvcurveto
          232 vlineto
          108 -68 63 -147 -129 -85 -58 -88 -9 0 -7 1 -6 vhcurveto
          132 15 hlineto
          21 18 26 67 63 11 -33 -40 vhcurveto
          -37 vlineto
          hintmask 1101110010000000
          -188 -130 -44 -142 -128 106 -20 57 85 44 28 41 35 hvcurveto
          6 hlineto
          hintmask 1011110010000000
          10 -33 24 -23 35 -8 rrcurveto
          -34 -24 -27 -30 -43 vvcurveto
          -59 50 -19 56 vhcurveto
          hintmask 1101110010000000
          35 36 14 0 hvcurveto
          hintmask 1101110100000000
          -200 399 rmoveto
          -16 vlineto
          -66 -30 -53 -82 -47 -20 24 31 65 87 15 92 vhcurveto
          endchar
        </CharString>
        <CharString name="approxequal">
          -134 53 120 -59 120 30 120 -59 120 hstemhm
          27 493 hintmask 00000000
          hintmask 01101000
          520 337 rmoveto
          35 callsubr
          hintmask 01101000
          123 callsubr
          hintmask 10011000
          -211 vmoveto
          35 callsubr
          hintmask 10011000
          123 callsubr
          endchar
        </CharString>
        <CharString name="aring">
          -75 callgsubr
          18 57 88 57 -70 callgsubr
          -11 57 88 57 -32 137 7 callsubr
          hintmask 1011110011000000
          278 556 -86 callsubr
          hintmask 1011010010100000
          225 -653 rmoveto
          hintmask 0111010100100000
          -106 callsubr
          hintmask 1011011010100000
          -188 -130 -44 -142 -128 106 -20 57 85 44 28 41 35 hvcurveto
          6 hlineto
          -44 13 39 -25 54 hhcurveto
          hintmask 1011010010100000
          39 26 9 7 14 hvcurveto
          hintmask 1011011010100000
          -72 callgsubr
        </CharString>
        <CharString name="aringacute">
          -75 callgsubr
          18 57 88 57 19 132 -70 callgsubr
          -11 57 88 57 -32 137 hintmask 1011001001010000
          225 777 -102 callgsubr
          hintmask 1011111001100000
          -26 -353 -86 callsubr
          hintmask 1011001001010000
          225 -653 rmoveto
          hintmask 0111001010010000
          -106 callsubr
          hintmask 1011001101010000
          -188 -130 -44 -142 -128 106 -20 57 85 44 28 41 35 hvcurveto
          6 hlineto
          -44 13 39 -25 54 hhcurveto
          hintmask 1011001001010000
          39 26 9 7 14 hvcurveto
          hintmask 1011001101010000
          -72 callgsubr
        </CharString>
        <CharString name="arrowboth">
          317 198 109 hstem
          42 918 vstem
          763 69 127 callgsubr
          173 rlineto
          -52 hlineto
          53 -129 rlineto
          -526 hlineto
          53 129 109 callsubr
          -173 rlineto
          52 hlineto
          -53 129 rlineto
          526 hlineto
          -53 -129 rlineto
          endchar
        </CharString>
        <CharString name="arrowdown">
          117 callsubr
          198 108 vstem
          241 -207 rmoveto
          21 hlineto
          174 90 callsubr
          722 -108 -722 116 callgsubr
          endchar
        </CharString>
        <CharString name="arrowleft">
          114 callsubr
          238 198 rmoveto
          722 108 -722 hlineto
          53 130 109 callsubr
          -174 rlineto
          52 hlineto
          endchar
        </CharString>
        <CharString name="arrowright">
          114 callsubr
          763 68 127 callgsubr
          174 rlineto
          -52 hlineto
          53 -130 rlineto
          -722 -108 722 hlineto
          -53 -130 rlineto
          endchar
        </CharString>
        <CharString name="arrowup">
          117 callsubr
          197 109 vstem
          197 -207 rmoveto
          109 722 hlineto
          129 -53 rlineto
          52 vlineto
          -173 197 rlineto
          -21 hlineto
          -173 -197 rlineto
          -52 vlineto
          129 53 rlineto
          endchar
        </CharString>
        <CharString name="arrowupdn">
          117 callsubr
          195 108 vstem
          239 -207 rmoveto
          21 hlineto
          173 90 callsubr
          526 47 callsubr
          -526 116 callgsubr
          endchar
        </CharString>
        <CharString name="arrowupdnbse">
          -183 -233 86 hstem
          195 108 vstem
          239 -100 rmoveto
          21 hlineto
          173 90 callsubr
          419 47 callsubr
          -419 116 callgsubr
          1 -330 rmoveto
          367 86 -367 hlineto
          endchar
        </CharString>
        <CharString name="asciicircum">
          -214 564 122 0 -20 hstemhm
          25 420 hintmask 01100000
          335 294 rmoveto
          110 hlineto
          -157 392 rlineto
          -107 hlineto
          -156 -392 rlineto
          110 hlineto
          hintmask 10100000
          99 270 rlineto
          endchar
        </CharString>
        <CharString name="asciitilde">
          -99 211 119 -59 119 hstemhm
          41 502 hintmask 00000000
          hintmask 10100000
          543 283 rmoveto
          119 vlineto
          0 -60 -72 -85 vhcurveto
          hintmask 01100000
          -78 -58 60 -76 hhcurveto
          -97 -48 -72 0 hvcurveto
          -119 vlineto
          0 60 72 85 vhcurveto
          hintmask 10100000
          78 58 -60 76 hhcurveto
          97 48 72 0 hvcurveto
          endchar
        </CharString>
        <CharString name="asterisk">
          -294 686 -20 hstem
          31 323 vstem
          217 481 rmoveto
          96 -74 41 71 -112 46 112 47 -41 70 -96 -73 17 118 rlineto
          -83 hlineto
          17 -119 -96 74 -41 -70 112 -47 -112 -46 41 -71 96 74 -17 -119 rlineto
          83 hlineto
          endchar
        </CharString>
        <CharString name="at">
          292 -153 77 97 98 -97 92 128 83 100 96 100 77 hstemhm
          39 88 162 126 -102 121 144 125 157 89 hintmask 1011111101100000
          663 -126 rmoveto
          82 vlineto
          -18 -43 -96 -14 -55 hhcurveto
          -234 -108 113 224 243 146 117 234 208 145 -88 -211 -157 -63 -51 -55 -23 -16 9 32 hvcurveto
          211 vlineto
          98 -62 57 -134 vhcurveto
          hintmask 1011111011100000
          -117 -77 -53 -80 -8 0 -6 1 -6 hvcurveto
          120 14 hlineto
          19 16 24 61 57 10 -30 -37 vhcurveto
          -33 vlineto
          hintmask 1101111101100000
          -171 -118 -40 -130 -116 96 -18 52 77 41 25 38 31 hvcurveto
          6 hlineto
          hintmask 1011111101100000
          0 25 -62 96 98 138 72 227 268 -188 109 -253 -253 -216 -117 -319 -289 165 -126 265 51 93 11 16 50 vhcurveto
          -85 368 rmoveto
          -15 vlineto
          hintmask 1101111101100000
          -60 -27 -48 -75 -42 -19 22 28 vhcurveto
          hintmask 1011111101100000
          59 79 14 84 vhcurveto
          endchar
        </CharString>
        <CharString name="atilde">
          -75 callgsubr
          63 85 -48 85 -70 callgsubr
          -78 70 167 137 -108 70 7 callsubr
          hintmask 1011011000100000
          446 69 callgsubr
          hintmask 1011100010100000
          -57 callsubr
          hintmask 1011010011000000
          -66 callgsubr
          hintmask 1011101000100000
          -56 callsubr
          hintmask 1011011000100000
          -56 callgsubr
          hintmask 1011101001000000
          101 -719 rmoveto
          hintmask 0111100101000000
          -106 callsubr
          hintmask 1011101001000000
          -104 callgsubr
          endchar
        </CharString>
        <CharString name="b">
          -72 -12 119 -107 107 312 119 185 -20 -16 callgsubr
          225 141 hintmask 00000000
          hintmask 01111100
          71 hmoveto
          117 hlineto
          hintmask 10111100
          9 69 rlineto
          7 hlineto
          -54 34 59 -27 67 hhcurveto
          129 81 85 191 189 -87 85 -116 -71 -55 -26 -47 -31 hvcurveto
          -6 258 -137 hlineto
          362 -451 rmoveto
          -18 vlineto
          -95 -29 -52 -84 -78 -34 52 95 vhcurveto
          16 vlineto
          95 34 54 78 84 29 -52 -95 vhcurveto
          endchar
        </CharString>
        <CharString name="backslash">
          127 callsubr
          181 -49 rmoveto
          96 hlineto
          -181 784 rlineto
          -95 hlineto
          endchar
        </CharString>
        <CharString name="bar">
          102 callgsubr
          -173 rmoveto
          100 896 -100 hlineto
          endchar
        </CharString>
        <CharString name="braceleft">
          98 callsubr
          29 80 17 118 hintmask 10110100
          343 -159 rmoveto
          77 vlineto
          -46 -53 10 51 66 -5 63 -2 67 hvcurveto
          hintmask 11110100
          68 -3 -33 40 -92 hhcurveto
          10 vlineto
          hintmask 10110100
          92 34 40 68 2 hvcurveto
          2 67 5 63 66 vvcurveto
          51 56 10 43 vhcurveto
          77 vlineto
          -134 -83 -22 -126 hvcurveto
          -193 vlineto
          -45 -51 -15 -46 vhcurveto
          hintmask 11111100
          -92 vlineto
          hintmask 11110100
          46 51 -15 -45 hvcurveto
          -193 vlineto
          hintmask 10110100
          -126 83 -22 134 vhcurveto
          endchar
        </CharString>
        <CharString name="braceright">
          98 callsubr
          145 118 17 80 hintmask 10111000
          46 -82 rmoveto
          -77 vlineto
          134 83 22 126 hvcurveto
          hintmask 11111000
          193 vlineto
          45 51 15 46 vhcurveto
          hintmask 10111100
          92 vlineto
          hintmask 10111000
          -46 -51 15 45 hvcurveto
          193 vlineto
          126 -83 22 -134 vhcurveto
          -77 vlineto
          43 56 -10 -51 -66 5 -63 2 -67 hvcurveto
          -68 2 34 -40 92 hhcurveto
          -10 vlineto
          hintmask 11111000
          -92 -33 -40 -68 -3 hvcurveto
          -2 -67 -5 -63 -66 vvcurveto
          hintmask 10111000
          -51 -53 -10 -46 vhcurveto
          endchar
        </CharString>
        <CharString name="bracketleft">
          -350 -161 95 706 95 hstem
          71 116 vstem
          71 -161 rmoveto
          216 95 -100 706 100 95 -216 hlineto
          endchar
        </CharString>
        <CharString name="bracketright">
          -350 -161 95 706 95 hstem
          146 116 vstem
          46 -161 rmoveto
          216 896 -216 -95 100 -706 -100 hlineto
          endchar
        </CharString>
        <CharString name="breve">
          -350 586 100 callgsubr
          hstemhm
          5 323 hintmask 01100000
          328 84 callsubr
          hintmask 10100000
          -53 callgsubr
          hintmask 01100000
          -98 callgsubr
          endchar
        </CharString>
        <CharString name="brokenbar">
          102 callgsubr
          357 rmoveto
          100 366 -100 hlineto
          -896 vmoveto
          100 366 -100 hlineto
          endchar
        </CharString>
        <CharString name="bullet">
          -333 208 271 hstem
          40 271 vstem
          311 343 rmoveto
          75 -61 61 -75 -75 -60 -61 -75 -75 60 -60 75 75 61 60 75 vhcurveto
          endchar
        </CharString>
        <CharString name="c">
          62 callgsubr
          hstem
          74 callsubr
          vstem
          381 328 -93 callgsubr
        </CharString>
        <CharString name="cacute">
          62 callgsubr
          53 132 hstem
          74 callsubr
          vstem
          225 -92 callgsubr
          77 -395 -93 callgsubr
        </CharString>
        <CharString name="cacute.loclPLK">
          62 callgsubr
          53 131 hstem
          74 callsubr
          vstem
          225 -5 callgsubr
          127 -394 -93 callgsubr
        </CharString>
        <CharString name="caron">
          -350 588 135 hstem
          0 333 vstem
          106 588 -102 callsubr
          endchar
        </CharString>
        <CharString name="ccaron">
          62 callgsubr
          50 135 hstem
          74 callsubr
          vstem
          217 588 -102 callsubr
          270 -395 -93 callgsubr
        </CharString>
        <CharString name="ccedilla">
          61 callsubr
          44 -21 22 -21 437 110 hstemhm
          38 139 58 41 callgsubr
          -39 138 hintmask 1000111101000000
          180 -125 rmoveto
          hintmask 0100111101000000
          -49 vlineto
          hintmask 1010111010000000
          -49 callsubr
          hintmask 1001011101000000
          3 23 rlineto
          hintmask 1010111101000000
          117 11 77 68 129 vvcurveto
          -132 hlineto
          -64 -37 -36 -57 -83 -33 56 96 callgsubr
          32 56 77 60 35 -35 -65 vhcurveto
          138 hlineto
          141 -94 69 -136 -166 -85 -15 callgsubr
          vhcurveto
          hintmask 1000111101000000
          -170 67 -87 135 -15 vhcurveto
          hintmask 1010111101000000
          -10 -68 rlineto
          hintmask 1010111010000000
          -11 callgsubr
          endchar
        </CharString>
        <CharString name="ccircumflex">
          62 callgsubr
          50 135 -66 66 hstemhm
          74 callsubr
          hintmask 11101100
          333 588 -105 callsubr
          hintmask 11011100
          -14 callsubr
          103 -329 -93 callgsubr
        </CharString>
        <CharString name="cdotaccent">
          62 callgsubr
          56 130 hstem
          38 139 33 135 42 132 vstem
          210 18 callsubr
          171 -396 -93 callgsubr
        </CharString>
        <CharString name="cedilla">
          -350 -182 57 -28 -21 97 88 hstemhm
          178 107 hintmask 10110000
          45 -125 rmoveto
          hintmask 01110000
          -49 vlineto
          hintmask 10110000
          -49 callsubr
          6 44 rlineto
          -85 hlineto
          -13 -88 108 callgsubr
          endchar
        </CharString>
        <CharString name="cent">
          408 209 106 -20 hstemhm
          38 139 82 51 71 138 -132 132 hintmask 11110100
          259 -49 rmoveto
          51 117 hlineto
          125 7 84 68 135 vvcurveto
          -132 hlineto
          -58 -30 -35 -47 -6 vhcurveto
          327 vlineto
          hintmask 11111000
          45 -9 26 -33 -56 vvcurveto
          138 hlineto
          133 -85 69 -124 7 vhcurveto
          106 -51 -106 vlineto
          -147 -10 -74 -87 -177 vvcurveto
          -178 74 -86 147 -10 vhcurveto
          -82 266 rmoveto
          16 vlineto
          88 24 54 58 12 vhcurveto
          -324 vlineto
          -58 14 -24 54 86 vvcurveto
          endchar
        </CharString>
        <CharString name="circumflex">
          -350 588 135 -66 66 hstemhm
          0 333 hintmask 10100000
          222 588 -105 callsubr
          hintmask 01100000
          -14 callsubr
          endchar
        </CharString>
        <CharString name="colon">
          49 callgsubr
          -526 vmoveto
          -40 callsubr
          endchar
        </CharString>
        <CharString name="comma">
          -405 0 137 hstem
          70 138 vstem
          70 -156 rmoveto
          -48 callsubr
          endchar
        </CharString>
        <CharString name="copyright">
          54 -12 62 81 66 289 66 84 62 hstem
          13 64 112 79 182 78 131 -38 callgsubr
          160 247 rmoveto
          -74 hlineto
          -65 -24 -35 -62 -71 -29 41 103 105 31 40 69 63 19 -31 -69 vhcurveto
          78 hlineto
          108 -47 58 -113 -122 -57 -66 -145 -144 56 -66 123 115 45 78 88 vhcurveto
          endchar
        </CharString>
        <CharString name="currency">
          102 79 338 79 hstem
          33 82 326 82 vstem
          427 157 rmoveto
          55 -58 45 45 -54 56 rlineto
          34 42 16 54 55 vvcurveto
          55 -16 56 -34 39 vhcurveto
          55 54 -48 48 -57 -56 rlineto
          33 -38 -54 18 -53 hhcurveto
          -53 -54 -18 -33 -38 hvcurveto
          -57 56 -48 -48 55 -54 rlineto
          -34 -39 -16 -56 -55 vvcurveto
          -55 16 -54 34 -42 vhcurveto
          -54 -56 45 -45 55 58 rlineto
          -37 40 55 -18 54 hhcurveto
          54 55 18 37 40 hvcurveto
          -149 24 rmoveto
          -91 -72 79 91 89 73 79 90 90 73 -79 -89 -91 -72 -79 -91 hvcurveto
          endchar
        </CharString>
        <CharString name="d">
          -72 113 callgsubr
          185 -20 80 callsubr
          hintmask 00000000
          hintmask 01101110
          41 callsubr
          -258 -6 hlineto
          hintmask 10011110
          -69 callsubr
          -11 201 0 callsubr
        </CharString>
        <CharString name="dagger">
          -152 -21 859 -20 hstem
          230 94 vstem
          220 -173 rmoveto
          114 hlineto
          -20 598 206 -18 rlineto
          113 vlineto
          -206 66 callgsubr
          rlineto
          endchar
        </CharString>
        <CharString name="daggerdbl">
          -152 -21 190 -21 690 -20 hstem
          36 484 vstem
          315 13 rmoveto
          205 -17 rlineto
          113 vlineto
          -205 -18 20 169 -20 165 205 -18 rlineto
          113 vlineto
          -205 66 callgsubr
          -20 -165 20 -169 -205 18 rlineto
          -113 vlineto
          205 17 -17 -186 rlineto
          108 hlineto
          endchar
        </CharString>
        <CharString name="dcaron">
          36 113 callgsubr
          21 127 -127 164 80 callsubr
          53 138 7 callsubr
          hintmask 0110011110000000
          41 callsubr
          -258 -6 hlineto
          hintmask 1001101110000000
          -69 callsubr
          179 373 rmoveto
          72 hlineto
          66 129 rlineto
          hintmask 1000101110000000
          115 -138 -127 55 vlineto
          hintmask 1001101110000000
          -245 -289 0 callsubr
        </CharString>
        <CharString name="dcroat">
          -72 113 callgsubr
          49 71 -71 136 80 callsubr
          hintmask 00000000
          hintmask 01010111
          105 callsubr
          587 58 hlineto
          hintmask 10011011
          71 -58 vlineto
          hintmask 10010111
          65 -137 vlineto
          hintmask 10011011
          -65 -154 vlineto
          hintmask 10100111
          -71 154 -122 -6 vlineto
          hintmask 10010111
          -69 callsubr
          -11 201 0 callsubr
        </CharString>
        <CharString name="degree">
          -283 386 82 147 83 hstem
          44 82 147 83 vstem
          200 386 rmoveto
          87 69 69 87 87 -69 69 -87 -87 -69 -69 -87 -87 69 -69 87 hvcurveto
          82 vmoveto
          -41 -33 33 41 41 33 32 41 41 32 -32 -41 -41 -32 -33 -41 hvcurveto
          endchar
        </CharString>
        <CharString name="dieresis">
          -350 605 118 hstem
          2 -26 callgsubr
          vstem
          2 -68 callgsubr
          endchar
        </CharString>
        <CharString name="divide">
          -134 1 110 92 105 94 110 hstem
          214 120 vstem
          214 402 rmoveto
          120 110 -120 hlineto
          -175 -309 rmoveto
          472 105 -472 hlineto
          175 -307 rmoveto
          120 110 -120 hlineto
          endchar
        </CharString>
        <CharString name="dollar">
          68 103 281 165 106 -20 hstemhm
          40 129 -119 132 71 51 67 129 -116 132 hintmask 11100101
          253 -49 rmoveto
          51 117 hlineto
          123 6 89 45 119 vvcurveto
          117 -117 27 -95 22 vhcurveto
          110 vlineto
          hintmask 11101110
          41 -6 26 -20 -36 vvcurveto
          128 hlineto
          1 1 11 11 vvcurveto
          84 -85 51 -111 7 vhcurveto
          106 -51 -106 vlineto
          -116 -7 -87 -53 -99 vvcurveto
          -111 109 -28 94 -23 vhcurveto
          -125 vlineto
          hintmask 11110101
          -44 5 -39 20 -1 44 rrcurveto
          7 -128 vlineto
          0 -1 -7 -5 vvcurveto
          -95 77 -65 136 -7 vhcurveto
          hintmask 11101101
          447 vmoveto
          -98 vlineto
          -42 11 -29 14 28 vvcurveto
          25 28 16 43 4 vhcurveto
          51 -344 rmoveto
          111 vlineto
          46 -13 34 -16 -32 vvcurveto
          -34 -39 -13 -41 -3 vhcurveto
          endchar
        </CharString>
        <CharString name="dotaccent">
          -350 594 130 hstem
          100 135 vstem
          100 18 callsubr
          endchar
        </CharString>
        <CharString name="dotbelowcomb">
          -683 -30 callgsubr
          hstem
          -233 135 vstem
          -233 -173 -95 callsubr
          endchar
        </CharString>
        <CharString name="dotlessi">
          -405 21 -21 526 83 callgsubr
          -45 callsubr
          hlineto
          endchar
        </CharString>
        <CharString name="e">
          -60 callgsubr
          hstem
          -5 callsubr
          vstem
          175 231 -106 callgsubr
          endchar
        </CharString>
        <CharString name="eacute">
          -60 callgsubr
          53 132 hstem
          -5 callsubr
          vstem
          225 -92 callgsubr
          -129 -492 -106 callgsubr
          endchar
        </CharString>
        <CharString name="ebreve">
          -60 callgsubr
          85 callgsubr
          60 callgsubr
          hintmask 11101110
          439 84 callsubr
          hintmask 11110110
          -53 callgsubr
          hintmask 11101110
          -98 callgsubr
          -264 -492 -106 callgsubr
          endchar
        </CharString>
        <CharString name="ecaron">
          -60 callgsubr
          50 135 hstem
          -5 callsubr
          vstem
          217 588 -102 callsubr
          64 -492 -106 callgsubr
          endchar
        </CharString>
        <CharString name="ecircumflex">
          -60 callgsubr
          50 135 -66 66 60 callgsubr
          hintmask 11110110
          333 588 -105 callsubr
          hintmask 11101110
          -14 callsubr
          -103 -426 -106 callgsubr
          endchar
        </CharString>
        <CharString name="edieresis">
          -60 callgsubr
          67 118 hstemhm
          36 139 -61 -26 callgsubr
          -64 142 hintmask 11110110
          114 -68 callgsubr
          hintmask 11111001
          -149 -492 -106 callgsubr
          endchar
        </CharString>
        <CharString name="edotaccent">
          -60 callgsubr
          56 130 hstem
          36 139 35 135 34 142 vstem
          210 18 callsubr
          -35 -493 -106 callgsubr
          endchar
        </CharString>
        <CharString name="egrave">
          -60 callgsubr
          53 132 hstem
          -5 callsubr
          76 callsubr
          58 -489 -106 callgsubr
          endchar
        </CharString>
        <CharString name="eight">
          -12 110 198 109 183 110 hstemhm
          33 141 -124 139 179 138 -124 141 hintmask 11110010
          413 352 rmoveto
          hintmask 11101100
          62 33 31 57 65 vvcurveto
          105 -77 86 -151 -151 -77 -86 -105 -65 30 -57 62 -33 vhcurveto
          hintmask 11110010
          -76 -31 -33 -59 -74 vvcurveto
          -110 71 -90 174 174 71 90 110 74 -33 59 -77 31 vhcurveto
          hintmask 11101100
          -135 53 rmoveto
          -58 -31 32 59 59 31 33 58 57 33 -33 -59 -59 -33 -32 -57 hvcurveto
          hintmask 11110010
          104 -208 rmoveto
          -63 -37 -36 -67 -67 -37 36 63 63 37 36 67 67 37 -36 -63 vhcurveto
          endchar
        </CharString>
        <CharString name="ellipsis">
          317 0 137 hstem
          98 138 195 138 195 138 vstem
          98 hmoveto
          -40 callsubr
          333 -137 rmoveto
          -40 callsubr
          333 -137 rmoveto
          -40 callsubr
          endchar
        </CharString>
        <CharString name="emacron">
          -60 callgsubr
          73 88 hstem
          -5 callsubr
          vstem
          125 611 -51 callgsubr
          50 -468 -106 callgsubr
          endchar
        </CharString>
        <CharString name="emdash">
          317 221 98 hstem
          0 1000 vstem
          221 vmoveto
          1000 98 -1000 hlineto
          endchar
        </CharString>
        <CharString name="endash">
          221 98 hstem
          0 556 vstem
          221 vmoveto
          556 98 -556 hlineto
          endchar
        </CharString>
        <CharString name="eng">
          65 callsubr
          hintmask 11011100
          311 -70 rmoveto
          -96 vlineto
          -8 22 41 -8 31 hhcurveto
          107 31 71 70 hvcurveto
          394 vlineto
          hintmask 11101100
          -54 callsubr
          hintmask 11011100
          -62 callsubr
          hintmask 11101100
          -61 callsubr
          -351 vlineto
          -28 -15 -15 -28 vhcurveto
          endchar
        </CharString>
        <CharString name="eogonek">
          -182 69 101 65 callgsubr
          109 107 hstemhm
          36 139 163 105 -64 142 hintmask 00000000
          hintmask 11111100
          520 -168 rmoveto
          55 -16 vlineto
          -43 -18 29 49 39 11 28 14 15 hvcurveto
          hintmask 11111010
          32 32 21 46 61 vvcurveto
          25 callsubr
          346 32 hlineto
          189 -79 86 -154 -168 -84 44 callsubr
          82 -86 165 vhcurveto
          hintmask 11111100
          25 24 3 7 23 hvcurveto
          -10 -22 -7 -25 -34 vvcurveto
          -75 54 -24 57 24 22 5 9 25 vhcurveto
          hintmask 11111010
          -141 490 rmoveto
          -202 hlineto
          72 8 33 37 70 hhcurveto
          55 36 -31 -78 hvcurveto
          endchar
        </CharString>
        <CharString name="equal">
          -99 96 103 109 104 hstem
          56 472 vstem
          56 308 117 callgsubr
          -316 vmoveto
          472 103 -472 hlineto
          endchar
        </CharString>
        <CharString name="equivalence">
          -100 17 103 109 104 109 104 hstem
          56 473 vstem
          56 442 rmoveto
          111 callgsubr
          -317 vmoveto
          111 callgsubr
          -316 vmoveto
          473 103 -473 hlineto
          endchar
        </CharString>
        <CharString name="estimated">
          -83 -12 42 218 42 206 42 hstem
          45 108 298 108 vstem
          526 118 rmoveto
          -34 21 rlineto
          -67 -34 -68 -42 -88 hhcurveto
          -62 -50 19 34 -37 hvcurveto
          165 406 5 vlineto
          165 -98 120 -159 -160 -97 -116 -159 -159 97 -116 160 104 78 50 80 42 vhcurveto
          -75 323 rmoveto
          -151 -298 152 vlineto
          34 37 50 20 62 hhcurveto
          61 50 -20 -35 38 hvcurveto
          endchar
        </CharString>
        <CharString name="eth">
          -72 -12 112 316 112 61 70.5 -70.5 134 -113.5 76.5 -23 60 10 callgsubr
          hintmask 00000000
          hintmask 11001011
          452 606 rmoveto
          92 7 rlineto
          73 vlineto
          -159 -12 rlineto
          hintmask 11010011
          -18 17 -20 16 -22 16 rrcurveto
          -161 hlineto
          -4 -5 rlineto
          hintmask 11000111
          22 -18 22 -18 20 -19 rrcurveto
          hintmask 11100011
          -101 -7 rlineto
          hintmask 11010011
          -73 vlineto
          166 12 23 -28 20 -27 18 -27 rlinecurve
          -5 -4 rlineto
          12 -27 -32 7 -31 hhcurveto
          -143 -74 -104 -165 -186 89 -85 178 179 89 85 186 hvcurveto
          hintmask 11001011
          135 -38 113 -83 99 vhcurveto
          hintmask 11010011
          -20 -339 rmoveto
          -16 vlineto
          -98 -35 -53 -92 -91 -35 53 98 vhcurveto
          16 vlineto
          97 35 52 91 92 35 -52 -97 vhcurveto
          endchar
        </CharString>
        <CharString name="exclam">
          -350 0 137 549 -20 hstem
          98 138 vstem
          125 197 83 callsubr
          8 -686 rmoveto
          -40 callsubr
          endchar
        </CharString>
        <CharString name="exclamdbl">
          -79 0 137 549 -20 hstem
          98 138 133 138 vstem
          125 197 83 callsubr
          306 -489 83 callsubr
          -263 -686 rmoveto
          -40 callsubr
          271 -137 rmoveto
          -40 callsubr
          endchar
        </CharString>
        <CharString name="exclamdown">
          -350 388 137 hstem
          98 138 vstem
          98 388 rmoveto
          -40 callsubr
          -8 -686 rmoveto
          153 hlineto
          -36 489 rlineto
          -82 hlineto
          endchar
        </CharString>
        <CharString name="f">
          -350 101 callsubr
          vstem
          84 hmoveto
          77 callsubr
          50 hlineto
          -59 callgsubr
          vlineto
          endchar
        </CharString>
        <CharString name="f_f">
          -17 101 callsubr
          196 137 vstem
          597 619 rmoveto
          50 96 hlineto
          8 -21 -38 8 -29 hhcurveto
          -110 -32 -73 -72 hvcurveto
          -60 -196 50 vlineto
          -59 callgsubr
          -414 137 414 196 -414 77 callsubr
          50 vlineto
          28 15 15 28 vhcurveto
          endchar
        </CharString>
        <CharString name="fi">
          -72 92 callsubr
          73 124 112 callgsubr
          hintmask 11101100
          84 hmoveto
          77 callsubr
          hlineto
          hintmask 11011100
          50 vlineto
          -59 callgsubr
          vlineto
          hintmask 11101100
          320 185 70 callgsubr
        </CharString>
        <CharString name="five">
          -12 112 238 108 118 122 hstem
          36 141 199 141 vstem
          207 564 rmoveto
          276 122 -397 hlineto
          -27 -380 130 -16 rlineto
          25 19 26 23 44 hhcurveto
          56 42 -36 -78 -83 -39 -41 -60 -63 -37 43 70 hvcurveto
          -141 hlineto
          -140 96 -85 145 148 92 85 151 151 -88 71 -111 -60 -35 -18 -16 -25 vhcurveto
          endchar
        </CharString>
        <CharString name="fiveeighths">
          79 callsubr
          -43 68 110 67 48 74 12 -20 hstemhm
          41 84 -66 76 79 84 233 91 callsubr
          hintmask 1101110011100100
          100 -12 rmoveto
          88 hlineto
          hintmask 1101101011100100
          546 710 rlineto
          -88 hlineto
          hintmask 1101110011100100
          -509 -86 rmoveto
          143 74 -214 hlineto
          -14 -204 76 -10 rlineto
          14 10 12 11 20 hhcurveto
          25 19 -16 -36 -38 -18 -20 -26 hvcurveto
          hintmask 1101110101100100
          -29 -16 18 30 hvcurveto
          -84 hlineto
          -73 51 -43 78 79 49 45 81 81 -48 38 -60 vhcurveto
          hintmask 1101110011100100
          -25 -20 -7 -7 -12 hvcurveto
          605 -369 rmoveto
          hintmask 1110110011011000
          -13 callsubr
          hintmask 1101110011100100
          19 callsubr
          37 -17 30 -38 18 vhcurveto
          hintmask 1110110011011000
          -12 callgsubr
          hintmask 1101110011100100
          -26 callsubr
        </CharString>
        <CharString name="fl">
          -72 118 callgsubr
          104 112 callgsubr
          hintmask 11011100
          84 hmoveto
          77 callsubr
          50 hlineto
          -59 callgsubr
          vlineto
          320 -414 rmoveto
          137 hlineto
          hintmask 11101100
          723 -137 vlineto
          endchar
        </CharString>
        <CharString name="florin">
          -183 112 449 112 129 112 hstem
          23 509 vstem
          43 -71 rmoveto
          -20 -96 rlineto
          -8 19 36 -8 29 hhcurveto
          109 48 73 72 15 hvcurveto
          89 416 rlineto
          93 hlineto
          23 112 rlineto
          -93 hlineto
          19 86 rlineto
          28 6 18 15 28 hhcurveto
          50 hlineto
          20 96 rlineto
          8 -19 -36 8 -29 hhcurveto
          -110 -48 -73 -72 -15 hvcurveto
          -21 -96 rlineto
          -75 hlineto
          -23 -112 rlineto
          75 hlineto
          -87 -406 rlineto
          -28 -6 -17 -15 -28 hhcurveto
          endchar
        </CharString>
        <CharString name="four">
          21 -21 146 112 440 -20 hstem
          314 137 vstem
          314 hmoveto
          137 146 82 112 -82 338 -63 hlineto
          -15 -54 -30 -80 -29 -53 rrcurveto
          -151 -175 vlineto
          42 54 122 210 42 176 rrcurveto
          -141 hlineto
          -43 -171 -63 -144 -78 -125 rrcurveto
          -112 294 vlineto
          endchar
        </CharString>
        <CharString name="fraction">
          37 callgsubr
        </CharString>
        <CharString name="franc">
          21 -21 256 123 -40 125 99 123 hstemhm
          60 145 87 137 hintmask 10111100
          292 hmoveto
          137 192 hlineto
          96 24 51 63 vhcurveto
          38 128 hlineto
          0 -16 9 -24 -47 -25 -44 -53 -15 vhcurveto
          -7 hlineto
          -11 85 129 callsubr
          hintmask 11011100
          -85 -87 184 212 123 -357 -686 145 256 87 vlineto
          endchar
        </CharString>
        <CharString name="g">
          -33 callsubr
          -33 callgsubr
          195 136 -75 138 -134 134 7 callsubr
          hintmask 1111100010000000
          155 -182 -48 callgsubr
          hintmask 1111010100000000
          -83 callsubr
          hintmask 1111001001000000
          -87 callgsubr
          hintmask 1111010100000000
          -32 callsubr
          hintmask 1111100100000000
          55 callgsubr
          hintmask 1111100010000000
          85 callsubr
          hintmask 1111001100000000
          -74 callsubr
          hintmask 1111100010000000
          -89 callgsubr
        </CharString>
        <CharString name="g_tilde.loclGUA">
          -33 callsubr
          63 85 -48 85 -33 callgsubr
          -68 70 193 136 -133 70 -12 138 -134 134 7 callsubr
          hintmask 1111010010010000
          474 69 callgsubr
          hintmask 1111100001010000
          -57 callsubr
          hintmask 1111010001100000
          -66 callgsubr
          hintmask 1111100010010000
          -56 callsubr
          hintmask 1111010010010000
          -56 callgsubr
          hintmask 1111101000001000
          -319 -905 -48 callgsubr
          hintmask 1111100100100000
          -83 callsubr
          hintmask 1111100010000100
          -87 callgsubr
          hintmask 1111100100100000
          -32 callsubr
          hintmask 1111101000100000
          55 callgsubr
          hintmask 1111101000001000
          85 callsubr
          hintmask 1111100010100000
          -74 callsubr
          hintmask 1111101000001000
          -89 callgsubr
        </CharString>
        <CharString name="gbreve">
          -33 callsubr
          85 callgsubr
          -33 callgsubr
          195 136 -75 138 -134 134 hintmask 1111010011000000
          467 84 callsubr
          hintmask 1111100011000000
          -53 callgsubr
          hintmask 1111010011000000
          -98 callgsubr
          hintmask 1111011000100000
          -312 -905 -48 callgsubr
          hintmask 1111010101000000
          -83 callsubr
          hintmask 1111010010010000
          -87 callgsubr
          hintmask 1111010101000000
          -32 callsubr
          hintmask 1111011001000000
          55 callgsubr
          hintmask 1111011000100000
          85 callsubr
          hintmask 1111010011000000
          -74 callsubr
          hintmask 1111011000100000
          -89 callgsubr
        </CharString>
        <CharString name="gcaron">
          -33 callsubr
          50 135 -33 callgsubr
          195 136 -75 138 -134 134 hintmask 1111100110000000
          245 588 -102 callsubr
          hintmask 1111110001000000
          16 -83 callgsubr
        </CharString>
        <CharString name="gcircumflex">
          -33 callsubr
          50 26 -26 135 -66 66 -33 callgsubr
          195 136 -75 138 -104 104 hintmask 1111010001100000
          359 588 rmoveto
          111 hlineto
          -101 -16 callsubr
          -122 hlineto
          -102 -135 rlineto
          111 hlineto
          hintmask 1111001100010000
          52 69 rlineto
          -153 -839 -48 callgsubr
          hintmask 1111010010100000
          -83 callsubr
          hintmask 1111100001001000
          69 16 44 43 75 vvcurveto
          -104 hlineto
          -19 -19 -57 -68 -15 vhcurveto
          10 -30 -36 5 -40 hhcurveto
          -152 -81 -71 -108 -62 26 -49 51 -31 hvcurveto
          hintmask 1111010010100000
          -32 callsubr
          hintmask 1111010100100000
          55 callgsubr
          hintmask 1111001100010000
          85 callsubr
          hintmask 1111010001100000
          -74 callsubr
          hintmask 1111010100010000
          -89 callgsubr
        </CharString>
        <CharString name="gcommaaccent">
          -33 callsubr
          47 98 -33 callgsubr
          31 138 26 107 callgsubr
          237 585 rmoveto
          138 98 -55 hlineto
          55 97 rlineto
          -72 hlineto
          -66 -109 rlineto
          hintmask 1111110010100000
          -82 -853 -48 callgsubr
          hintmask 1111101011000000
          -83 callsubr
          hintmask 1111100110010000
          -87 callgsubr
          hintmask 1111101010100000
          -32 callsubr
          hintmask 1111110010100000
          55 callgsubr
          85 callsubr
          hintmask 1111100111000000
          -74 callsubr
          hintmask 1111110010100000
          -89 callgsubr
        </CharString>
        <CharString name="gdotaccent">
          -33 callsubr
          56 130 -33 callgsubr
          32 135 28 107 callgsubr
          238 18 callsubr
          hintmask 1111110010100000
          -83 -906 -48 callgsubr
          hintmask 1111101011000000
          -83 callsubr
          hintmask 1111100110010000
          -87 callgsubr
          hintmask 1111101010100000
          -32 callsubr
          hintmask 1111110010100000
          55 callgsubr
          85 callsubr
          hintmask 1111100111000000
          -74 callsubr
          hintmask 1111110010100000
          -89 callgsubr
        </CharString>
        <CharString name="germandbls">
          -72 0 111 210 121 183 110 hstemhm
          65 137 59 175 -28 139 -114 138 hintmask 11110010
          261 hmoveto
          87 hlineto
          139 84 89 118 hvcurveto
          hintmask 11111000
          87 -45 74 -90 24 vhcurveto
          4 vlineto
          hintmask 11110100
          63 23 48 57 80 vvcurveto
          106 -83 73 -149 -140 -110 -64 -160 vhcurveto
          -511 137 519 vlineto
          68 43 38 66 67 30 -40 -53 -50 -28 -40 -48 vhcurveto
          hintmask 11111000
          -71 -121 hlineto
          hintmask 11110010
          74 hlineto
          64 34 -47 -58 -57 -34 -48 -64 hvcurveto
          -74 hlineto
          endchar
        </CharString>
        <CharString name="grave">
          116 callsubr
          75 213 vstem
          183 -27 callgsubr
          endchar
        </CharString>
        <CharString name="greater">
          -99 2 520 hstem
          56 474 vstem
          56 2 45 callgsubr
          endchar
        </CharString>
        <CharString name="greaterequal">
          126 callsubr
          123 45 callgsubr
          -241 vmoveto
          111 callgsubr
          endchar
        </CharString>
        <CharString name="guillemotleft">
          526 -20 hstem
          59 458 vstem
          195 126 22 callgsubr
          359 -200 22 callgsubr
          endchar
        </CharString>
        <CharString name="guillemotright">
          526 -20 hstem
          39 458 vstem
          39 126 21 callsubr
          115 -200 21 callsubr
          endchar
        </CharString>
        <CharString name="guilsinglleft">
          -350 526 -20 hstem
          59 235 vstem
          195 126 22 callgsubr
          endchar
        </CharString>
        <CharString name="guilsinglright">
          -350 526 -20 hstem
          39 235 vstem
          39 126 21 callsubr
          endchar
        </CharString>
        <CharString name="h">
          23 callsubr
          185 -20 hstem
          71 -17 callsubr
          vstem
          406 hmoveto
          1 callsubr
          258 -137 -723 137 304 hlineto
          -61 callsubr
          endchar
        </CharString>
        <CharString name="hbar">
          23 callsubr
          49 71 -71 136 -2 callgsubr
          hintmask 11011100
          406 hmoveto
          1 callsubr
          122 154 hlineto
          hintmask 11101100
          71 -154 vlineto
          hintmask 11011100
          65 -137 vlineto
          hintmask 11101100
          -65 -58 vlineto
          hintmask 11011100
          -71 58 -587 137 304 vlineto
          -61 callsubr
          endchar
        </CharString>
        <CharString name="hcircumflex">
          23 callsubr
          185 -20 45 135 -2 callgsubr
          hintmask 00000000
          hintmask 11111100
          195 748 -105 callsubr
          -14 callsubr
          266 -817 rmoveto
          1 callsubr
          hlineto
          hintmask 11101100
          258 -137 -723 137 304 vlineto
          -61 callsubr
          endchar
        </CharString>
        <CharString name="hookabovecomb">
          -683 591 106 callsubr
          -220 68 -22 107 hintmask 11100000
          -267 683 -77 callsubr
          hintmask 11010000
          -91 callgsubr
          hintmask 11100000
          -59 callsubr
          endchar
        </CharString>
        <CharString name="house">
          -79 0 70 hstem
          77 69 312 69 vstem
          77 hmoveto
          450 310 hlineto
          -225 253 -225 -253 rlineto
          381 -27 rmoveto
          -213 -312 213 vlineto
          156 178 rlineto
          endchar
        </CharString>
        <CharString name="hungarumlaut">
          116 callsubr
          7 388 vstem
          7 -21 callgsubr
          endchar
        </CharString>
        <CharString name="hyphen">
          53 callgsubr
        </CharString>
        <CharString name="i">
          -405 21 -21 526 69 callsubr
          -723 vmoveto
          -4 callgsubr
          endchar
        </CharString>
        <CharString name="i.loclTRK">
          42 callsubr
          88 130 93 callgsubr
          18 callsubr
          -724 vmoveto
          -39 callsubr
        </CharString>
        <CharString name="iacute">
          40 callgsubr
          71 -92 callgsubr
          -79 122 callsubr
          endchar
        </CharString>
        <CharString name="iacute_j.loclNLD">
          68 callgsubr
          85 132 125 callgsubr
          -92 callgsubr
          214 -132 -102 callgsubr
          -372 122 callsubr
          183 -596 -84 callgsubr
        </CharString>
        <CharString name="ibreve">
          42 callsubr
          80 100 callgsubr
          -16 callgsubr
          hintmask 11011000
          303 84 callsubr
          hintmask 11101000
          -53 callgsubr
          hintmask 11011000
          -98 callgsubr
          -232 122 callsubr
          endchar
        </CharString>
        <CharString name="icircumflex">
          -405 21 -21 526 13 callsubr
          -69 -657 rmoveto
          -39 callsubr
        </CharString>
        <CharString name="idieresis">
          42 callsubr
          99 118 hstemhm
          -25 118 -22 137 -23 119 hintmask 00000000
          hintmask 11110100
          -25 -68 callgsubr
          hintmask 11101000
          -114 122 callsubr
          endchar
        </CharString>
        <CharString name="igrave">
          40 callgsubr
          107 -27 callgsubr
          72 -720 rmoveto
          -39 callsubr
        </CharString>
        <CharString name="ij">
          68 callgsubr
          93 124 hstem
          71 137 141 20 callgsubr
          278 -124 -23 callsubr
          -278 122 callsubr
          183 -596 -84 callgsubr
        </CharString>
        <CharString name="imacron">
          42 callsubr
          133 88 62 callsubr
          -13 639 -51 callgsubr
          84 -727 rmoveto
          -39 callsubr
        </CharString>
        <CharString name="infinity">
          30 138 83 154 82 hstem
          47 94 429 94 vstem
          354 232 rmoveto
          -83 58 59 -11 41 hhcurveto
          78 74 60 104 97 -70 58 -82 -78 -42 -58 -32 -30 hvcurveto
          59 -43 -48 31 -67 hhcurveto
          -89 -68 -65 -96 -97 71 -61 78 68 45 38 56 45 hvcurveto
          -48 66 rmoveto
          3 -5 rlineto
          -35 -24 -34 -37 -42 hhcurveto
          -39 -29 35 41 51 30 27 35 48 22 -32 -45 30 hvcurveto
          97 hmoveto
          3 4 rlineto
          38 30 27 35 40 hhcurveto
          41 26 -34 -45 -32 -22 -43 -40 -33 -25 12 65 -47 hvcurveto
          endchar
        </CharString>
        <CharString name="integral">
          -409 -141 70 79 -21 803 69 hstem
          71 139 vstem
          23 -71 rmoveto
          -70 vlineto
          101 86 17 95 149 -28 613 0 hvcurveto
          113 callsubr
          -150 27 -610 0 hvcurveto
          -44 -32 -14 -43 vhcurveto
          endchar
        </CharString>
        <CharString name="integralbt">
          -79 -250 69 hstem
          254 111 vstem
          177 -181 rmoveto
          -69 vlineto
          101 87 18 94 80 -7 477 -7 440 hvcurveto
          -114 hlineto
          17 -983 rlineto
          -43 -34 -14 -43 vhcurveto
          endchar
        </CharString>
        <CharString name="integraltp">
          -79 790 69 hstem
          239 111 vstem
          253 -250 rmoveto
          114 hlineto
          -17 983 rlineto
          113 callsubr
          -80 7 -477 7 -440 hvcurveto
          endchar
        </CharString>
        <CharString name="intersection">
          39 21 -21 589 87 hstem
          94 92 348 92 vstem
          361 589 rmoveto
          96 77 -74 -105 hvcurveto
          -410 92 410 vlineto
          153 -119 113 -147 -147 -119 -113 -153 vhcurveto
          -410 92 410 vlineto
          105 78 74 97 vhcurveto
          endchar
        </CharString>
        <CharString name="iogonek">
          -405 -182 69 134 -21 526 69 callsubr
          161 -891 rmoveto
          60 callsubr
          24 13 23 12 15 hvcurveto
          23 -45 callsubr
          -526 23 hlineto
          -21 -23 -18 -28 -43 2 callgsubr
          endchar
        </CharString>
        <CharString name="itilde">
          42 callsubr
          95 6 callsubr
          -29 70 30 137 29 70 hintmask 00000000
          hintmask 11010110
          307 69 callgsubr
          hintmask 11101110
          -28 -4 -12 -9 -19 -45 -39 37 -49 hhcurveto
          -22 callsubr
          -236 122 callsubr
          endchar
        </CharString>
        <CharString name="j">
          -405 64 callsubr
          596 69 callsubr
          -95 -793 -84 callgsubr
        </CharString>
        <CharString name="jcircumflex">
          -405 64 callsubr
          596 13 callsubr
          -164 -727 -84 callgsubr
        </CharString>
        <CharString name="k">
          21 96 callsubr
          217 -20 62 callsubr
          8 callsubr
          406 -137 -723 137 155 vlineto
          70 68 rlineto
          endchar
        </CharString>
        <CharString name="kcommaaccent">
          -138 98 61 96 callsubr
          217 -20 -16 callgsubr
          24 138 hintmask 11111000
          8 callsubr
          406 -137 -723 137 155 vlineto
          70 68 rlineto
          -43 -453 rmoveto
          hintmask 11111100
          -70 callsubr
        </CharString>
        <CharString name="kgreenlandic">
          21 96 callsubr
          62 callsubr
          8 callsubr
          209 -137 -526 137 155 vlineto
          70 68 rlineto
          endchar
        </CharString>
        <CharString name="l">
          -405 21 58 callsubr
          723 -137 hlineto
          endchar
        </CharString>
        <CharString name="lacute">
          -405 21 -21 723 -20 48 132 -16 callgsubr
          hintmask 00000000
          hintmask 11110000
          86 751 -102 callgsubr
          -94 -883 rmoveto
          137 hlineto
          hintmask 11010000
          723 -137 vlineto
          endchar
        </CharString>
        <CharString name="lcaron">
          -298 21 -21 559 127 -127 164 -16 callgsubr
          53 138 hintmask 11011000
          71 hmoveto
          137 hlineto
          hintmask 10111000
          723 -137 vlineto
          190 -281 rmoveto
          72 hlineto
          66 129 rlineto
          hintmask 11011000
          115 -138 -127 55 vlineto
          endchar
        </CharString>
        <CharString name="lcommaaccent">
          -405 -138 98 61 58 callsubr
          723 -137 hlineto
          2 -953 rmoveto
          -70 callsubr
        </CharString>
        <CharString name="ldot">
          -315 21 -21 289 137 297 -20 88 callsubr
          49 138 vstem
          71 hmoveto
          137 723 -137 hlineto
          186 -434 rmoveto
          -40 callsubr
          endchar
        </CharString>
        <CharString name="less">
          -99 2 520 hstem
          54 474 vstem
          54 198 45 callsubr
          endchar
        </CharString>
        <CharString name="lessequal">
          126 callsubr
          319 45 callsubr
          1 -446 rmoveto
          111 callgsubr
          endchar
        </CharString>
        <CharString name="lira">
          0 112 82 92 53 92 155 66 callsubr
          82 rlineto
          158 92 -158 53 158 92 -156 81 36 callgsubr
          -68 -75 -92 75 -53 -75 -92 75 -82 -62 vlineto
          endchar
        </CharString>
        <CharString name="logicalnot">
          -99 357 98 hstem
          444 98 vstem
          444 193 rmoveto
          98 262 -500 -98 402 hlineto
          endchar
        </CharString>
        <CharString name="longs">
          -405 101 callsubr
          vstem
          84 hmoveto
          137 576 hlineto
          -59 callgsubr
          vlineto
          endchar
        </CharString>
        <CharString name="lozenge">
          -83 597 131 0 -20 hstemhm
          42 484 hintmask 01100000
          526 298 rmoveto
          -178 430 rlineto
          -127 hlineto
          -179 -430 179 -431 rlineto
          127 hlineto
          -64 131 rmoveto
          -116 300 rlineto
          hintmask 10100000
          116 299 116 -299 rlineto
          endchar
        </CharString>
        <CharString name="lslash">
          -405 21 58 callsubr
          344 hlineto
          70 48 rlineto
          102 vlineto
          -70 -48 rlineto
          277 -137 -371 vlineto
          -71 -48 rlineto
          -102 vlineto
          71 48 rlineto
          endchar
        </CharString>
        <CharString name="m">
          206 44 callgsubr
          -12 -20 -16 callgsubr
          170 137 169 137 hintmask 11011100
          684 hmoveto
          137 353 hlineto
          136 -71 49 -93 -74 -50 -38 -43 -32 vhcurveto
          -8 hlineto
          58 -27 -50 23 -61 hhcurveto
          -71 -48 -38 -43 -31 hvcurveto
          -7 hlineto
          hintmask 10111100
          -62 callsubr
          hintmask 11011100
          63 39 50 54 47 30 -25 -68 vhcurveto
          -324 137 304 vlineto
          63 38 50 54 47 30 -25 -68 vhcurveto
          endchar
        </CharString>
        <CharString name="macron">
          63 callsubr
        </CharString>
        <CharString name="minus">
          -99 204 104 hstem
          56 472 vstem
          56 204 117 callgsubr
          endchar
        </CharString>
        <CharString name="minute">
          -443 506 180 hstem
          51 166 vstem
          51 506 58 callgsubr
          endchar
        </CharString>
        <CharString name="mu">
          -41 callgsubr
        </CharString>
        <CharString name="multiply">
          -99 37 436 hstem
          75 435 vstem
          292 182 rmoveto
          144 -144 73 73 -144 143 145 145 -73 74 -145 -145 -145 144 -72 -73 144 -144 -144 -144 73 -74 rlineto
          endchar
        </CharString>
        <CharString name="n">
          -72 21 89 callsubr
          hintmask 10111000
          406 hmoveto
          137 353 hlineto
          hintmask 11011000
          -54 callsubr
          hintmask 10111000
          -62 callsubr
          hintmask 11011000
          -61 callsubr
          endchar
        </CharString>
        <CharString name="nacute">
          23 callsubr
          -12 -20 85 132 -2 callgsubr
          hintmask 10111100
          253 -92 callgsubr
          74 -723 -58 callgsubr
        </CharString>
        <CharString name="nacute.loclPLK">
          23 callsubr
          -12 -20 85 131 -2 callgsubr
          hintmask 10111100
          253 -5 callgsubr
          124 -722 -58 callgsubr
        </CharString>
        <CharString name="napostrophe">
          25 44 callgsubr
          -96 84 33 127 hstemhm
          -3 138 33 -17 callsubr
          hintmask 10111110
          -3 442 15 callgsubr
          451 -559 rmoveto
          137 353 hlineto
          hintmask 11011110
          -54 callsubr
          hintmask 10111110
          -62 callsubr
          hintmask 11011110
          -61 callsubr
          endchar
        </CharString>
        <CharString name="ncaron">
          23 callsubr
          -12 -20 82 135 -2 callgsubr
          hintmask 10111100
          245 588 -102 callsubr
          267 -723 -58 callgsubr
        </CharString>
        <CharString name="ncommaaccent">
          -72 -138 98 61 35 callgsubr
          -12 -20 -16 callgsubr
          29 138 31 137 hintmask 11011010
          406 hmoveto
          137 353 hlineto
          hintmask 11101010
          -54 callsubr
          hintmask 11011010
          -62 callsubr
          hintmask 11101010
          -61 callsubr
          -166 -554 rmoveto
          hintmask 11011110
          -70 callsubr
        </CharString>
        <CharString name="nine">
          -12 111 148 109 230 112 hstemhm
          30 141 -119 139 182 141 129 callgsubr
          191 203 rmoveto
          -139 hlineto
          -122 64 -93 151 155 92 89 286 254 -95 81 -158 vhcurveto
          hintmask 11110100
          -133 -98 -87 -139 -130 62 -95 141 88 52 54 0 hvcurveto
          -124 -2 -10 -78 -89 hhcurveto
          hintmask 11101100
          -59 -22 38 66 hvcurveto
          hintmask 11110100
          76 153 rmoveto
          -66 -30 46 70 65 30 49 66 66 32 -49 -65 -70 -32 -46 -66 hvcurveto
          endchar
        </CharString>
        <CharString name="notequal">
          -134 96 103 109 104 hstem
          38 472 vstem
          233 96 rmoveto
          277 103 -222 hlineto
          58 109 rlineto
          164 104 -109 hlineto
          39 72 rlineto
          -86 hlineto
          -39 -72 rlineto
          -277 -104 222 hlineto
          -58 -109 rlineto
          -164 -103 109 hlineto
          -38 -71 rlineto
          86 hlineto
          endchar
        </CharString>
        <CharString name="ntilde">
          23 callsubr
          -12 -20 95 85 -48 85 -16 callgsubr
          196 70 -68 137 hintmask 00000000
          hintmask 10101110
          474 69 callgsubr
          hintmask 10110110
          -57 callsubr
          hintmask 10101101
          -66 callgsubr
          hintmask 10110110
          -56 callsubr
          hintmask 10101110
          -56 callgsubr
          hintmask 11010101
          -68 -723 rmoveto
          137 353 hlineto
          -54 callsubr
          hintmask 10110101
          -62 callsubr
          hintmask 11010101
          -61 callsubr
          endchar
        </CharString>
        <CharString name="numbersign">
          9 -21 175 108 123 108 196 -20 hstem
          9 535 vstem
          261 -12 rmoveto
          104 hlineto
          35 175 rlineto
          98 108 -76 hlineto
          25 123 rlineto
          97 108 -75 112 callsubr
          -120 112 callsubr
          -86 -108 64 hlineto
          -25 -123 rlineto
          -85 -108 63 hlineto
          -35 -175 rlineto
          104 hlineto
          35 175 rlineto
          120 hlineto
          47 231 rmoveto
          -25 -123 rlineto
          -120 hlineto
          25 123 rlineto
          endchar
        </CharString>
        <CharString name="o">
          -76 callsubr
          -17 callgsubr
          305 -12 -105 callgsubr
          endchar
        </CharString>
        <CharString name="oacute">
          -38 callsubr
          253 -92 callgsubr
          -27 -735 -105 callgsubr
          endchar
        </CharString>
        <CharString name="oacute.loclPLK">
          17 callsubr
          131 -17 callgsubr
          253 -5 callgsubr
          23 -734 -105 callgsubr
          endchar
        </CharString>
        <CharString name="obreve">
          -76 callsubr
          85 callgsubr
          10 callgsubr
          hintmask 11011100
          467 84 callsubr
          hintmask 11101100
          -53 callgsubr
          hintmask 11011100
          -98 callgsubr
          -162 -735 -105 callgsubr
          endchar
        </CharString>
        <CharString name="ocircumflex">
          -76 callsubr
          50 135 -66 66 10 callgsubr
          hintmask 11101100
          361 588 -105 callsubr
          hintmask 11011100
          -14 callsubr
          -1 -669 -105 callgsubr
          endchar
        </CharString>
        <CharString name="odieresis">
          -76 callsubr
          67 118 hstemhm
          38 141 -37 -26 callgsubr
          -39 141 hintmask 11101100
          142 -68 callgsubr
          hintmask 11110010
          -47 -735 -105 callgsubr
          endchar
        </CharString>
        <CharString name="oe">
          261 -12 106 -106 -28 callsubr
          104 112 -107 107 hstemhm
          38 141 245 5 callsubr
          hintmask 00000000
          hintmask 10110111
          563 231 73 callsubr
          -80 -61 -23 -47 -42 vhcurveto
          47 -44 -64 23 -84 hhcurveto
          -175 -88 -15 callgsubr
          hvcurveto
          hintmask 01110111
          -189 88 -86 175 84 64 23 46 44 vhcurveto
          -46 42 61 -23 80 hhcurveto
          133 100 61 137 hvcurveto
          hintmask 10110111
          25 callsubr
          hintmask 01101111
          -96 callgsubr
          hintmask 01110111
          -343 -51 rmoveto
          -16 vlineto
          -101 -34 -54 -89 -88 -34 54 96 callgsubr
          34 54 88 89 34 -54 -101 vhcurveto
          endchar
        </CharString>
        <CharString name="ogonek">
          -350 -182 69 -69 194 hstemhm
          73 105 hintmask 10100000
          250 -168 rmoveto
          60 callsubr
          hvcurveto
          hintmask 01100000
          28 19 28 13 14 vhcurveto
          4 -86 vlineto
          hintmask 10100000
          -26 -26 -25 -30 -50 2 callgsubr
          endchar
        </CharString>
        <CharString name="ograve">
          -38 callsubr
          253 -27 callgsubr
          160 -732 -105 callgsubr
          endchar
        </CharString>
        <CharString name="ohorn">
          -76 callsubr
          11 137 10 callgsubr
          -61 158 hintmask 10110100
          512 686 -36 callsubr
          hintmask 11110100
          -69 callgsubr
          hintmask 11111000
          -6 callsubr
          hintmask 10110100
          26 callsubr
          hintmask 11111000
          -65 callgsubr
          endchar
        </CharString>
        <CharString name="ohungarumlaut">
          -38 callsubr
          166 -21 callgsubr
          -115 -735 -105 callgsubr
          endchar
        </CharString>
        <CharString name="omacron">
          -76 callsubr
          73 88 -17 callgsubr
          153 611 -51 callgsubr
          152 -711 -105 callgsubr
          endchar
        </CharString>
        <CharString name="one">
          0 112 408 85 81 -20 hstem
          246 137 vstem
          85 hmoveto
          445 112 -147 574 -71 hlineto
          -69 -40 -99 -35 -60 -6 rrcurveto
          -85 162 -408 -161 vlineto
          endchar
        </CharString>
        <CharString name="oneeighth">
          79 callsubr
          -33 32 callsubr
          320 91 callsubr
          hintmask 1101101100000000
          110 -12 -27 callsubr
          -610 79 callgsubr
          hintmask 1101110100010000
          1 callgsubr
          692 -223 rmoveto
          hintmask 1110101101100000
          -13 callsubr
          hintmask 1101101110010000
          19 callsubr
          vhcurveto
          hintmask 1101110100010000
          37 -17 30 -38 18 vhcurveto
          hintmask 1110101101100000
          -12 callgsubr
          hintmask 1101101110010000
          -26 callsubr
        </CharString>
        <CharString name="onehalf">
          151 0 75 -66 -21 312 69 -40 32 callsubr
          316 118 callsubr
          7 callsubr
          hintmask 0101101100000000
          100 -12 -27 callsubr
          -600 79 callgsubr
          hintmask 1001110110000000
          1 callgsubr
          481 -404 52 callsubr
          hintmask 1010101101100000
          -34 callsubr
          hintmask 1001101110000000
          57 callsubr
          endchar
        </CharString>
        <CharString name="onequarter">
          124 callsubr
          189 32 callsubr
          449 83 7 callsubr
          hintmask 0101101110000000
          100 -12 -27 callsubr
          -600 79 callgsubr
          hintmask 1001110110000000
          1 callgsubr
          614 -403 rmoveto
          83 hlineto
          hintmask 0011101110000000
          70 40 vlineto
          hintmask 1001101110000000
          50 callsubr
          hintmask 0011101110000000
          103 callgsubr
        </CharString>
        <CharString name="ordfeminine">
          -313 404 65 82 56 66 64 hstemhm
          30 85 -69 81 97 82 hintmask 11110100
          345 413 rmoveto
          58 -17 vlineto
          -11 -11 6 16 hvcurveto
          140 vlineto
          66 -41 38 -89 vhcurveto
          hintmask 11101100
          -78 -52 -35 -54 -5 0 -4 1 -4 hvcurveto
          80 10 hlineto
          12 11 16 40 38 8 -20 -24 vhcurveto
          -22 vlineto
          hintmask 11110100
          -114 -80 -27 -86 -78 64 -12 35 52 26 17 24 21 hvcurveto
          4 hlineto
          -26 8 24 -15 33 hhcurveto
          24 16 5 4 8 hvcurveto
          -121 138 rmoveto
          -9 vlineto
          -40 -19 -33 -50 -28 -12 15 18 40 52 9 57 vhcurveto
          endchar
        </CharString>
        <CharString name="ordmasculine">
          -318 404 68 197 68 hstem
          21 85 154 86 vstem
          183 404 rmoveto
          109 54 52 115 114 -54 52 -109 -108 -54 -52 -114 -115 54 -52 108 hvcurveto
          77 171 rmoveto
          -9 vlineto
          -61 -21 -33 -56 -55 -22 33 61 vhcurveto
          9 vlineto
          61 22 33 55 56 21 -33 -61 vhcurveto
          endchar
        </CharString>
        <CharString name="orthogonal">
          296 0 89 hstem
          177 89 vstem
          177 hmoveto
          625 89 -536 536 -89 hlineto
          endchar
        </CharString>
        <CharString name="oslash">
          -76 callsubr
          -17 callgsubr
          45 -49 -63 callgsubr
        </CharString>
        <CharString name="oslashacute">
          -38 callsubr
          254 -92 callgsubr
          -288 -772 -63 callgsubr
        </CharString>
        <CharString name="otilde">
          -76 callsubr
          63 6 callsubr
          38 141 -41 10 callsubr
          -42 141 hintmask 00000000
          hintmask 11011010
          474 69 callgsubr
          hintmask 11100110
          -57 callsubr
          hintmask 11010101
          -66 callgsubr
          hintmask 11101010
          -56 callsubr
          hintmask 11011010
          -56 callgsubr
          hintmask 11101001
          -169 -735 -105 callgsubr
          endchar
        </CharString>
        <CharString name="p">
          104 callgsubr
          -46 46 312 107 -107 119 -16 callgsubr
          225 141 hintmask 11001110
          71 -173 rmoveto
          137 hlineto
          hintmask 10101110
          234 6 vlineto
          hintmask 11001110
          99 callgsubr
          -81 85 -129 -67 -59 -27 -54 -34 hvcurveto
          -7 hlineto
          hintmask 11010110
          -9 69 129 callsubr
          hintmask 11001110
          362 -254 51 callgsubr
        </CharString>
        <CharString name="paragraph">
          625 61 hstem
          233 84 66 84 vstem
          383 -168 rmoveto
          84 793 61 61 -266 hlineto
          -136 -108 -58 -160 -145 105 -70 110 hvcurveto
          -421 84 793 66 vlineto
          endchar
        </CharString>
        <CharString name="parenleft">
          -350 736 -20 hstem
          51 123 vstem
          217 -157 rmoveto
          88 hlineto
          -74 122 -57 169 157 vvcurveto
          156 57 167 74 122 vhcurveto
          -88 hlineto
          -107 -123 -59 -160 -165 vvcurveto
          -164 59 -158 107 -123 vhcurveto
          endchar
        </CharString>
        <CharString name="parenright">
          -350 736 -20 hstem
          159 123 vstem
          28 -157 rmoveto
          88 hlineto
          107 123 59 158 164 vvcurveto
          165 -59 160 -107 123 vhcurveto
          -88 hlineto
          74 -122 57 -167 -156 vvcurveto
          -157 -57 -169 -74 -122 vhcurveto
          endchar
        </CharString>
        <CharString name="partialdiff">
          -189 -12 102 262 97 187 99 hstem
          35 125 176 119 vstem
          335 384 rmoveto
          -4 hlineto
          24 -12 -37 41 -58 hhcurveto
          -98 -91 -93 -152 -116 61 -100 120 153 86 148 247 250 -116 102 -118 -56 -41 -13 -16 -31 hvcurveto
          -104 vlineto
          18 25 35 16 48 hhcurveto
          77 58 -96 -122 -9 0 -19 -1 -6 hvcurveto
          -7 -105 rmoveto
          -97 -7 -39 -92 -59 hhcurveto
          -40 -23 45 66 82 38 69 49 44 28 -40 -33 9 hvcurveto
          endchar
        </CharString>
        <CharString name="percent">
          206 -12 81 -48 -21 268 81 -12 81 199 81 -12 -20 hstemhm
          46 104 126 104 130 104 126 104 hintmask 1001101111000000
          213 337 rmoveto
          104 63 41 139 128 callsubr
          -138 63 -42 104 hvcurveto
          hintmask 0101011111000000
          -71 -337 rmoveto
          102 hlineto
          507 686 rlineto
          -104 hlineto
          hintmask 1001101111000000
          -371 -161 rmoveto
          -15 vlineto
          -55 -12 -37 -51 -52 -11 37 55 vhcurveto
          15 vlineto
          55 11 37 52 51 12 -37 -55 vhcurveto
          401 -537 rmoveto
          104 63 41 139 hvcurveto
          hintmask 1010101111000000
          128 callsubr
          vhcurveto
          hintmask 1001101111000000
          -138 63 -42 104 vhcurveto
          hintmask 1010101111000000
          63 188 rmoveto
          -15 vlineto
          -54 -11 -38 -52 -51 -12 38 54 vhcurveto
          15 vlineto
          54 12 38 51 52 11 -38 -54 vhcurveto
          endchar
        </CharString>
        <CharString name="period">
          -405 0 137 hstem
          70 138 vstem
          70 hmoveto
          -40 callsubr
          endchar
        </CharString>
        <CharString name="periodcentered">
          -350 289 137 hstem
          96 138 vstem
          96 289 rmoveto
          -40 callsubr
          endchar
        </CharString>
        <CharString name="perthousand">
          317 -11 81 -49 -21 269 81 -13 81 199 81 -12 -20 hstemhm
          18 104 78 104 72 104 78 104 32 104 78 104 7 callsubr
          hintmask 0101101100000000
          161 337 rmoveto
          67 callgsubr
          -54 -337 rmoveto
          88 hlineto
          hintmask 0000010100000000
          378 686 rlineto
          -90 hlineto
          hintmask 1001101111000000
          -283 -161 rmoveto
          12 callgsubr
          319 -536 rmoveto
          89 54 41 139 hvcurveto
          hintmask 0010000011000000
          139 -54 42 -89 -89 -54 -42 -139 vhcurveto
          hintmask 1001101111000000
          -138 54 -42 89 vhcurveto
          hintmask 1010000011110000
          318 hmoveto
          67 callgsubr
          -279 188 rmoveto
          12 callgsubr
          318 hmoveto
          12 callgsubr
          endchar
        </CharString>
        <CharString name="peseta">
          411 -12 106 -106 112 -112 179 -146 -21 236 123 13 166 -124 112 -94 106 25 123 hstemhm
          67 143 287 132 43 124 -116 132 111 124 -119 132 7 callsubr
          hintmask 0010110011101100
          923 372 rmoveto
          123 hlineto
          1 1 11 11 vvcurveto
          hintmask 0010100111101100
          90 -78 53 -101 vhcurveto
          hintmask 0001101011101010
          -29 -27 -4 -8 -25 hvcurveto
          -158 148 -106 hlineto
          -23 -148 rlineto
          -28 hlineto
          100 -21 -74 60 -130 hhcurveto
          -180 -686 143 236 27 hlineto
          143 78 67 111 16 hvcurveto
          23 -285 hlineto
          hintmask 0010100111101010
          -70 27 -71 91 49 31 16 0 vhcurveto
          62 vlineto
          -49 30 58 -29 81 hhcurveto
          112 84 42 128 hvcurveto
          208 -248 -68 92 vvcurveto
          27 21 15 31 vhcurveto
          hintmask 0010110011101100
          35 24 -19 -41 hvcurveto
          hintmask 0010101011110010
          -684 -13 rmoveto
          -29 204 29 hlineto
          63 34 -37 -64 -64 -34 -39 -63 hvcurveto
          557 -199 rmoveto
          7 -123 vlineto
          hintmask 0100101011110010
          0 -1 -7 -5 vvcurveto
          -20 3 -18 5 -17 vhcurveto
          -8 hlineto
          95 callsubr
          271 vlineto
          hintmask 1000101011101010
          54 hlineto
          -2 -11 -1 -12 -13 -203 248 67 -101 vvcurveto
          -37 -33 -10 -27 vhcurveto
          hintmask 0010101011110010
          -34 -36 16 50 -2 hvcurveto
          endchar
        </CharString>
        <CharString name="pi">
          83 92 callsubr
          hstem
          184 136 166 137 vstem
          505 hmoveto
          134 hlineto
          -10 30 -6 44 82 vvcurveto
          258 104 vlineto
          10 112 rlineto
          -503 hlineto
          -108 -60 -11 -19 -33 hvcurveto
          15 -95 rlineto
          9 29 29 4 78 hhcurveto
          -4 -117 -35 -199 -42 -98 rrcurveto
          136 hlineto
          40 81 32 216 9 117 rrcurveto
          166 -267 hlineto
          -80 8 -51 11 -16 vhcurveto
          endchar
        </CharString>
        <CharString name="plus">
          -99 21 -21 203 104 hstem
          240 103 vstem
          240 hmoveto
          70 callsubr
          endchar
        </CharString>
        <CharString name="plusminus">
          -134 0 104 248 104 hstem
          223 103 vstem
          223 149 rmoveto
          70 callsubr
          -184 -352 117 callgsubr
          endchar
        </CharString>
        <CharString name="product">
          140 598 125 hstem
          130 145 272 144 vstem
          547 -128 rmoveto
          144 726 91 125 -741 -125 89 -726 145 726 272 hlineto
          endchar
        </CharString>
        <CharString name="q">
          104 callgsubr
          312 107 -107 119 80 callsubr
          hintmask 11011100
          403 -173 rmoveto
          137 hlineto
          hintmask 11101100
          699 -117 vlineto
          hintmask 11011100
          -9 -69 rlineto
          -7 hlineto
          54 -34 -59 27 -67 hhcurveto
          -129 -81 -85 -191 -189 87 -85 116 71 55 26 47 31 hvcurveto
          6 hlineto
          211 vmoveto
          -16 vlineto
          -95 -34 -54 -78 -84 -29 52 95 vhcurveto
          18 vlineto
          95 29 52 84 78 34 -52 -95 vhcurveto
          endchar
        </CharString>
        <CharString name="question">
          -72 0 137 440 121 hstemhm
          57 142 30 138 -132 125 35 149 129 callgsubr
          235 197 rmoveto
          125 28 hlineto
          123 184 -5 177 vvcurveto
          117 -90 61 -146 -168 -83 -92 -112 -19 4 -16 0 vhcurveto
          139 hlineto
          0 -1 11 16 vvcurveto
          32 13 59 86 92 5 -52 -23 vhcurveto
          -97 -160 9 -174 vvcurveto
          hintmask 11010000
          -6 -240 rmoveto
          -40 callsubr
          endchar
        </CharString>
        <CharString name="questiondown">
          -72 -172 121 440 137 hstemhm
          74 149 28 138 -131 125 36 142 hintmask 11010000
          251 389 rmoveto
          -40 callsubr
          hintmask 11101100
          306 -459 rmoveto
          -139 hlineto
          0 1 -11 -16 vvcurveto
          -32 -13 -59 -86 -92 -5 52 23 vhcurveto
          97 160 -9 174 vvcurveto
          43 -125 -28 vlineto
          -123 -184 5 -177 vvcurveto
          -117 90 -61 146 168 83 92 112 19 -4 16 0 vhcurveto
          endchar
        </CharString>
        <CharString name="quotedbl">
          -209 407 279 hstem
          53 149 71 149 vstem
          75 407 52 callgsubr
          7 callgsubr
          52 callgsubr
          endchar
        </CharString>
        <CharString name="quotedblbase">
          -183 0 137 hstem
          70 138 84 138 vstem
          70 -156 rmoveto
          -48 callsubr
          167 -156 rmoveto
          -48 callsubr
          endchar
        </CharString>
        <CharString name="quotedblleft">
          -183 393 137 156 -20 hstem
          70 138 84 138 vstem
          70 393 29 callgsubr
          222 -125 29 callgsubr
          endchar
        </CharString>
        <CharString name="quotedblright">
          -183 105 callgsubr
          84 138 vstem
          70 393 rmoveto
          -48 callsubr
          167 -156 rmoveto
          -48 callsubr
          endchar
        </CharString>
        <CharString name="quoteleft">
          -405 393 137 156 -20 hstem
          70 138 vstem
          70 393 29 callgsubr
          endchar
        </CharString>
        <CharString name="quotereversed">
          -405 105 callgsubr
          vstem
          136 393 rmoveto
          72 hlineto
          -55 156 rlineto
          55 137 -138 -125 hlineto
          endchar
        </CharString>
        <CharString name="quoteright">
          -405 105 callgsubr
          vstem
          70 393 rmoveto
          -48 callsubr
          endchar
        </CharString>
        <CharString name="quotesinglbase">
          -405 0 137 hstem
          70 138 vstem
          70 -156 rmoveto
          -48 callsubr
          endchar
        </CharString>
        <CharString name="quotesingle">
          -445 407 279 hstemhm
          49 149 hintmask 00000000
          hintmask 11000000
          71 407 52 callgsubr
          endchar
        </CharString>
        <CharString name="r">
          -294 21 102 callsubr
          hintmask 10011000
          71 hmoveto
          137 254 hlineto
          hintmask 11001000
          96 36 51 91 vhcurveto
          38 hlineto
          hintmask 10011000
          128 vlineto
          hintmask 11001000
          -23 callgsubr
          hintmask 10101000
          -11 85 129 callsubr
          endchar
        </CharString>
        <CharString name="racute">
          -294 21 9 callsubr
          82 132 -16 callgsubr
          hintmask 10011100
          142 -92 callgsubr
          -150 -723 -47 callsubr
        </CharString>
        <CharString name="radical">
          -134 -148 1005 hstem
          30 518 vstem
          276 -148 rmoveto
          110 hlineto
          162 1005 rlineto
          -79 hlineto
          -130 -835 -137 373 -172 -72 27 -80 60 23 rlineto
          endchar
        </CharString>
        <CharString name="rcaron">
          -294 21 9 callsubr
          79 135 -16 callgsubr
          hintmask 10011100
          134 588 -102 callsubr
          43 -723 -47 callsubr
        </CharString>
        <CharString name="rcommaaccent">
          -294 -138 98 61 -21 callsubr
          3 -756 rmoveto
          -70 callsubr
        </CharString>
        <CharString name="registered">
          54 -12 62 244 67 124 66 85 62 hstem
          13 64 143 78 164 79 118 -38 callgsubr
          107 88 rmoveto
          84 hlineto
          -27 54 -32 61 -28 55 rrcurveto
          47 21 22 42 54 vvcurveto
          75 -43 51 -86 vhcurveto
          -192 -413 78 156 99 hlineto
          5 67 rmoveto
          -104 124 104 hlineto
          38 22 -21 -39 -41 -25 -23 -35 hvcurveto
          endchar
        </CharString>
        <CharString name="revlogicalnot">
          -99 357 98 hstem
          42 98 vstem
          140 357 rmoveto
          402 98 -500 -262 98 hlineto
          endchar
        </CharString>
        <CharString name="ring">
          -350 556 57 88 57 hstem
          66 57 88 57 vstem
          167 556 -86 callsubr
          endchar
        </CharString>
        <CharString name="s">
          -12 50 callgsubr
          179 134 -121 137 129 callgsubr
          372 372 rmoveto
          -66 callsubr
          hintmask 11101010
          -31 callgsubr
          hintmask 11110010
          -77 callgsubr
          hintmask 11101010
          -32 callgsubr
          hintmask 11101100
          54 36 -19 -41 hvcurveto
          endchar
        </CharString>
        <CharString name="sacute">
          -12 -57 callgsubr
          53 132 -18 callgsubr
          hintmask 11110101
          225 -92 callgsubr
          hintmask 11110110
          68 -351 -82 callsubr
        </CharString>
        <CharString name="sacute.loclPLK">
          -12 -57 callgsubr
          53 131 -18 callgsubr
          hintmask 11110101
          225 -5 callgsubr
          hintmask 11110110
          118 -350 -82 callsubr
        </CharString>
        <CharString name="scaron">
          -12 -57 callgsubr
          50 135 -18 callgsubr
          hintmask 11110101
          217 588 -102 callsubr
          hintmask 11110110
          261 -351 -82 callsubr
        </CharString>
        <CharString name="scedilla">
          61 callsubr
          23 104 -104 177 -156 -21 224.05 113.36 104.59 106 hstemhm
          46 134 -124 137 44 41 callgsubr
          -50 134 -121 137 hintmask 1000011101000100
          182 -125 rmoveto
          hintmask 0100011101000100
          -49 vlineto
          hintmask 1010011101010000
          -49 callsubr
          hintmask 1000011101100100
          3 23 rlineto
          114 9 81 45 114 -32 callgsubr
          hintmask 1000011101101000
          54 36 -19 -41 hvcurveto
          -66 callsubr
          hintmask 1001001101000100
          -31 callgsubr
          hintmask 1001001110000100
          -51 -53 16 50 -2 hvcurveto
          7 vlineto
          hintmask 1000101110000100
          -133 hlineto
          0 -1 -7 -5 vvcurveto
          -91 71 -64 125 -10 vhcurveto
          hintmask 1010011101100100
          -10 -67 rlineto
          hintmask 1010011101010000
          -11 callgsubr
          endchar
        </CharString>
        <CharString name="scircumflex">
          -12 -57 callgsubr
          50 135 -66 66 -18 callgsubr
          hintmask 1111001010000000
          333 588 -105 callsubr
          hintmask 1110101100000000
          -14 callsubr
          94 -285 rmoveto
          -66 callsubr
          hintmask 1111001010000000
          -31 callgsubr
          hintmask 1111010010000000
          -77 callgsubr
          hintmask 1111001010000000
          -32 callgsubr
          hintmask 1110101100000000
          54 36 -19 -41 hvcurveto
          endchar
        </CharString>
        <CharString name="scommaaccent">
          -138 98 28 50 callgsubr
          16 138 25 134 -121 137 7 callsubr
          hintmask 0111010100000000
          372 372 rmoveto
          -66 callsubr
          hintmask 0111010010000000
          -31 callgsubr
          hintmask 0111100010000000
          -77 callgsubr
          hintmask 0111010010000000
          -32 callgsubr
          hintmask 0111010100000000
          54 36 -19 -41 hvcurveto
          -160 -602 rmoveto
          hintmask 1111011010000000
          -70 callsubr
        </CharString>
        <CharString name="second">
          -204 506 180 hstem
          51 367 vstem
          51 506 58 callgsubr
          166 -180 58 callgsubr
          endchar
        </CharString>
        <CharString name="section">
          -182 106 -106 166 548 166 -108 108 hstemhm
          41 134 -117 139 162 139 -117 134 hintmask 00000000
          hintmask 01010101
          198 -16 rmoveto
          -139 hlineto
          -1 -1 -11 -11 vvcurveto
          hintmask 10010110
          -90 94 -53 120 129 97 53 107 58 -27 41 -39 30 vhcurveto
          hintmask 10010101
          53 34 30 48 51 193 -318 6 97 vvcurveto
          33 33 21 49 vhcurveto
          hintmask 10101010
          49 30 -18 -40 hvcurveto
          139 hlineto
          1 1 11 11 vvcurveto
          hintmask 10010110
          90 -94 53 -120 -129 -97 -53 -107 -59 27 -41 39 -29 vhcurveto
          hintmask 10011010
          -53 -35 -30 -48 -50 -193 318 -6 -97 vvcurveto
          -34 -33 -22 -49 vhcurveto
          hintmask 01010101
          -49 -30 19 41 hvcurveto
          hintmask 10011001
          10 375 rmoveto
          85 -38 88 -28 -80 vvcurveto
          -21 -14 -20 -20 -16 vhcurveto
          -85 34 -87 33 80 vvcurveto
          20 15 20 18 16 vhcurveto
          endchar
        </CharString>
        <CharString name="semicolon">
          49 callgsubr
          -682 vmoveto
          -48 callsubr
          endchar
        </CharString>
        <CharString name="seven">
          21 -21 564 122 hstem
          134 147 vstem
          134 hmoveto
          148 hlineto
          -1 24 0 8 19 vvcurveto
          210 76 callgsubr
          110 136 vhcurveto
          91 -493 -122 337 vlineto
          -123 -139 -115 -205 -220 vvcurveto
          endchar
        </CharString>
        <CharString name="seveneighths">
          79 callsubr
          250 74 12 -20 hstemhm
          62 263 -212 86 315 91 callsubr
          hintmask 1111001100100000
          83 -12 rmoveto
          88 hlineto
          hintmask 1110101100100000
          546 710 rlineto
          -88 hlineto
          -516 -374 rmoveto
          87 hlineto
          -1 13 0 10 10 vvcurveto
          hintmask 1111001100100000
          103 70 102 56 68 vhcurveto
          hintmask 1111010100100000
          56 -263 -74 165 vlineto
          hintmask 1111001100100000
          -62 -72 -52 -99 -111 vvcurveto
          608 -149 rmoveto
          hintmask 1111001011000000
          -13 callsubr
          hintmask 1111001100100000
          19 callsubr
          37 -17 30 -38 18 vhcurveto
          hintmask 1111001011000000
          -12 callgsubr
          hintmask 1111001100100000
          -26 callsubr
        </CharString>
        <CharString name="six">
          -12 112 230 109 148 111 hstemhm
          42 141 182 139 -119 141 hintmask 00000000
          hintmask 11111000
          365 483 rmoveto
          139 hlineto
          122 -64 93 -151 -155 -92 -89 -286 -254 95 -81 158 vhcurveto
          hintmask 11110100
          133 98 87 139 130 -62 95 -141 -88 -52 -54 0 hvcurveto
          124 2 10 78 89 hhcurveto
          hintmask 11111000
          59 22 -38 -66 hvcurveto
          hintmask 11110100
          -76 -383 rmoveto
          -66 -32 49 65 70 32 46 66 66 30 -46 -70 -65 -30 -49 -66 hvcurveto
          endchar
        </CharString>
        <CharString name="slash">
          127 callsubr
          1 -49 rmoveto
          96 hlineto
          180 784 rlineto
          -95 hlineto
          endchar
        </CharString>
        <CharString name="space">
          -405 endchar
        </CharString>
        <CharString name="sterling">
          0 112 170 112 192 66 callsubr
          170 rlineto
          158 112 -156 118 36 callgsubr
          -105 -75 -112 75 -170 -62 vlineto
          endchar
        </CharString>
        <CharString name="summation">
          30 -128 125 601 125 hstem
          59 631 vstem
          59 -128 rmoveto
          631 125 -447 4 hlineto
          277 314 -254 279 rlineto
          4 405 125 -602 -114 vlineto
          282 -310 -292 -327 rlineto
          endchar
        </CharString>
        <CharString name="t">
          -350 -12 112 314 112 hstem
          74 137 vstem
          -50 callgsubr
          endchar
        </CharString>
        <CharString name="tbar">
          -350 -12 112 154 71 89 112 hstem
          74 137 vstem
          302 4 rmoveto
          96 -48 vlineto
          95 callsubr
          111 91 71 -91 89 91 112 -91 148 -111 vlineto
          -23 -148 rlineto
          -66 -112 63 -89 -63 -71 63 -125 hlineto
          -70 31 -71 107 119 callsubr
          vhcurveto
          endchar
        </CharString>
        <CharString name="tcaron">
          -204 -12 112 314 112 -84 84 33 127 hstemhm
          74 137 138 138 hintmask 00000000
          hintmask 10111100
          349 442 15 callgsubr
          -102 -555 rmoveto
          96 -48 vlineto
          95 callsubr
          hintmask 11011100
          271 91 112 -91 148 -111 vlineto
          -23 -148 rlineto
          -66 -112 63 -285 hlineto
          -70 31 -71 107 vhcurveto
          hintmask 10111100
          119 callsubr
          hvcurveto
          endchar
        </CharString>
        <CharString name="thorn">
          104 callgsubr
          -46 46 312 119 199 -20 -16 callgsubr
          225 141 hintmask 11011110
          71 -173 rmoveto
          137 hlineto
          hintmask 10111110
          234 6 vlineto
          hintmask 11011110
          99 callgsubr
          -82 85 -121 -71 -55 -26 -47 -31 hvcurveto
          -6 272 -137 hlineto
          362 -465 51 callgsubr
        </CharString>
        <CharString name="three">
          -12 112 193 112 77 216 -112 112 hstemhm
          34 139 -125 139 30 180 -33 141 -127 141 hintmask 1101010010000000
          397 352 rmoveto
          4 vlineto
          hintmask 1101010100000000
          61 29 47 44 81 vvcurveto
          122 -93 66 -137 -132 -95 -74 -114 vhcurveto
          hintmask 1110010010000000
          -28 139 vlineto
          hintmask 1101010100000000
          19 vlineto
          57 35 28 56 52 34 -25 -60 -65 -41 -31 -52 vhcurveto
          hintmask 1101011000000000
          -54 -112 51 hlineto
          hintmask 1101100010000000
          58 52 -19 -80 -65 -41 -29 -59 -68 -37 32 59 hvcurveto
          21 -139 -18 vlineto
          -125 87 -81 159 140 99 74 122 vhcurveto
          hintmask 1101010010000000
          91 -52 55 -70 22 vhcurveto
          endchar
        </CharString>
        <CharString name="threeeighths">
          79 callsubr
          -37 72 callsubr
          235 91 callsubr
          hintmask 1101101010011001
          235 515 rmoveto
          4 vlineto
          hintmask 1101101010101001
          -7 callgsubr
          hintmask 1101110010011001
          -12 83 8 vlineto
          hintmask 1101101010101001
          4 callsubr
          hintmask 1101101001001001
          -34 -69 hlineto
          hintmask 1101101100011001
          -8 callsubr
          hintmask 1101101010011001
          94 callgsubr
          -135 -527 -27 callsubr
          92 -517 rmoveto
          hintmask 1110101010010110
          -13 callsubr
          hintmask 1101101010011001
          19 callsubr
          37 -17 30 -38 18 vhcurveto
          hintmask 1110101010010110
          -12 callgsubr
          hintmask 1101101010011001
          -26 callsubr
        </CharString>
        <CharString name="threequarters">
          124 callsubr
          185 68 87 69 35 114 -68 68 hstemhm
          38 83 -76 83 3 105 -30 84 -77 84 363 83 hintmask 1001101000011000
          236 515 rmoveto
          4 vlineto
          hintmask 1001101010101000
          -7 callgsubr
          hintmask 1001110010011000
          -12 83 8 vlineto
          hintmask 1001101010101000
          4 callsubr
          hintmask 1001101001001000
          -34 -69 hlineto
          hintmask 1001101100011000
          -8 callsubr
          hintmask 1001101000011000
          94 callgsubr
          hintmask 0101101000011000
          -136 -527 -27 callsubr
          hintmask 1001101000011000
          14 -697 rmoveto
          83 hlineto
          hintmask 0011101000011000
          70 40 vlineto
          hintmask 1001101000011000
          50 callsubr
          hintmask 0011101000011000
          103 callgsubr
        </CharString>
        <CharString name="tilde">
          -350 601 6 callsubr
          -1 10 callsubr
          hintmask 00000000
          hintmask 01110000
          335 69 callgsubr
          hintmask 10110000
          -57 callsubr
          hintmask 01110000
          -66 callgsubr
          hintmask 10110000
          -56 callsubr
          hintmask 01110000
          -56 callgsubr
          endchar
        </CharString>
        <CharString name="trademark">
          317 613 73 hstem
          217 77 180 71 279 77 vstem
          217 280 rmoveto
          77 333 138 73 -354 -73 139 hlineto
          607 -334 rmoveto
          77 407 -112 hlineto
          -102 -306 -99 306 rlineto
          -114 -407 71 304 hlineto
          103 -304 rlineto
          72 hlineto
          104 306 rlineto
          endchar
        </CharString>
        <CharString name="two">
          0 122 464 112 hstem
          50 140 190 139 vstem
          43 hmoveto
          480 122 -311 hlineto
          47 83 260 72 220 vvcurveto
          51 -19 150 -205 -131 -114 -61 -147 -24 4 -16 0 vhcurveto
          136 41 hlineto
          66 36 29 63 63 28 -43 -38 -32 -9 -31 -16 -25 vhcurveto
          -81 -125 -231 -63 -193 vvcurveto
          endchar
        </CharString>
        <CharString name="u">
          -72 -12 115 callsubr
          198 137 hintmask 01111000
          423 hmoveto
          -73 callgsubr
          hintmask 10111000
          -103 callgsubr
          endchar
        </CharString>
        <CharString name="uacute">
          -25 callgsubr
          251 -92 callgsubr
          93 -24 callgsubr
          hintmask 10111100
          -103 callgsubr
          endchar
        </CharString>
        <CharString name="ubreve">
          -58 callsubr
          80 100 callgsubr
          -29 callsubr
          hintmask 01101110
          465 84 callsubr
          hintmask 01110110
          -53 callgsubr
          hintmask 01101110
          -98 callgsubr
          -42 -24 callgsubr
          hintmask 10101110
          -103 callgsubr
          endchar
        </CharString>
        <CharString name="ucircumflex">
          -58 callsubr
          82 135 -66 66 -29 callsubr
          hintmask 01110110
          359 588 -105 callsubr
          hintmask 01101110
          -14 callsubr
          119 -657 rmoveto
          -73 callgsubr
          hintmask 10110110
          -103 callgsubr
          endchar
        </CharString>
        <CharString name="udieresis">
          -58 callsubr
          99 118 5 callgsubr
          hintmask 00000000
          hintmask 01110110
          140 -68 callgsubr
          hintmask 01111001
          73 -24 callgsubr
          hintmask 10111001
          -103 callgsubr
          endchar
        </CharString>
        <CharString name="ugrave">
          -25 callgsubr
          251 -27 callgsubr
          280 -720 rmoveto
          -73 callgsubr
          hintmask 10111100
          -103 callgsubr
          endchar
        </CharString>
        <CharString name="uhorn">
          -4 callsubr
          -29 callsubr
          -38 158 hintmask 00000000
          hintmask 01011101
          -19 callsubr
          hintmask 10011110
          -104 -304 hlineto
          -103 callgsubr
          hintmask 01101110
          38 callsubr
          hintmask 01101101
          -43 callsubr
          endchar
        </CharString>
        <CharString name="uhungarumlaut">
          -25 callgsubr
          164 -21 callgsubr
          5 -24 callgsubr
          hintmask 10111100
          -103 callgsubr
          endchar
        </CharString>
        <CharString name="umacron">
          -58 callsubr
          105 88 121 callsubr
          151 611 -51 callgsubr
          272 -699 rmoveto
          -73 callgsubr
          hintmask 10111100
          -103 callgsubr
          endchar
        </CharString>
        <CharString name="underscore">
          -160 98 hstem
          0 556 vstem
          -160 vmoveto
          556 98 -556 hlineto
          endchar
        </CharString>
        <CharString name="underscoredbl">
          -131 -312 91 68 91 hstem
          0 552 vstem
          -153 vmoveto
          552 91 -552 hlineto
          -250 vmoveto
          552 91 -552 hlineto
          endchar
        </CharString>
        <CharString name="uni00A0">
          -405 endchar
        </CharString>
        <CharString name="uni00AD">
          53 callgsubr
        </CharString>
        <CharString name="uni00B2">
          -350 329 75 225 69 hstemhm
          41 118 callsubr
          hintmask 00000000
          hintmask 11100000
          41 329 52 callsubr
          hintmask 11011000
          -34 callsubr
          hintmask 11100000
          57 callsubr
          endchar
        </CharString>
        <CharString name="uni00B3">
          -350 325 72 callsubr
          hintmask 1101010010000000
          235 515 rmoveto
          4 vlineto
          hintmask 1101010100000000
          -7 callgsubr
          hintmask 1110010010000000
          -12 83 8 vlineto
          hintmask 1101010100000000
          4 callsubr
          hintmask 1101001000000000
          -34 -69 hlineto
          hintmask 1101100010000000
          -8 callsubr
          hintmask 1101010010000000
          94 callgsubr
          endchar
        </CharString>
        <CharString name="uni00B5">
          -41 callgsubr
        </CharString>
        <CharString name="uni00B9">
          -350 330 75 185 55 41 -20 hstem
          137 83 vstem
          55 330 rmoveto
          239 75 -74 281 -43 hlineto
          -35 -20 -53 -18 -34 -3 rrcurveto
          -55 82 -185 -82 vlineto
          endchar
        </CharString>
        <CharString name="uni0162">
          -72 61 callsubr
          54 -21 561 125 hstemhm
          233 145 -45 107 hintmask 10111100
          378 hmoveto
          16 callsubr
          -561 vlineto
          hintmask 10111010
          28 hlineto
          -11 -77 99 callsubr
          hintmask 01111100
          -49 vlineto
          hintmask 10111010
          -49 callsubr
          hintmask 10111100
          5 33 rlineto
          endchar
        </CharString>
        <CharString name="uni0163">
          -350 61 callsubr
          21 112 -91 -21 426 112 hstemhm
          74 137 -7 107 hintmask 00000000
          hintmask 10001101
          213 -33 rmoveto
          3 21 29 1 37 7 20 8 rlinecurve
          hintmask 10010101
          96 vlineto
          hintmask 10010110
          -48 hlineto
          95 callsubr
          271 91 112 -91 148 -111 vlineto
          -23 -148 rlineto
          -66 -112 63 -285 hlineto
          hintmask 10101110
          -48 15 -49 44 -26 vhcurveto
          hintmask 10101101
          -12 -83 99 callsubr
          hintmask 01001110
          -49 vlineto
          hintmask 10001101
          -49 callsubr
          endchar
        </CharString>
        <CharString name="uni018F">
          75 -12 117 168 106 203 116 hstem
          42 152 366 150 vstem
          560 379 rmoveto
          -518 -48 hlineto
          -239 117 -104 217 225 109 111 240 247 -115 112 -227 -191 -135 -79 -173 vhcurveto
          143 hlineto
          95 76 41 103 131 59 -67 -136 6 vhcurveto
          -366 -106 rmoveto
          364 hlineto
          -116 -13 -52 -52 -115 hhcurveto
          -109 -75 47 121 hvcurveto
          endchar
        </CharString>
        <CharString name="uni019D">
          71 callsubr
          514 686 rmoveto
          -379 82 callsubr
          373 rlineto
          -141 -713 hlineto
          -28 -15 -15 -28 vhcurveto
          -52 -96 hlineto
          -8 23 43 -8 32 hhcurveto
          107 31 71 70 hvcurveto
          420 vlineto
          18 -3 42 0 vhcurveto
          5 3 rlineto
          0 19 -38 20 -28 vhcurveto
          265 -376 rlineto
          141 686 hlineto
          endchar
        </CharString>
        <CharString name="uni01C4">
          650 74 callgsubr
          47 135 -42 callsubr
          318 149 vstem
          967 733 -102 callsubr
          -794 -868 rmoveto
          -46 callsubr
        </CharString>
        <CharString name="uni01C5">
          87 callsubr
          -98 135 -10 callsubr
          318 149 hintmask 00000000
          hintmask 10101110
          911 588 -102 callsubr
          -738 -723 rmoveto
          -37 callsubr
          hvcurveto
          hintmask 01110110
          -3 callsubr
          vhcurveto
          -53 callsubr
          hintmask 10110110
          213 -358 rmoveto
          -92 callsubr
          endchar
        </CharString>
        <CharString name="uni01C6">
          82 callgsubr
          50 135 80 callsubr
          hintmask 01100111
          41 callsubr
          hlineto
          hintmask 01010111
          -258 -6 vlineto
          hintmask 10001111
          -69 callsubr
          386 519 -102 callsubr
          hintmask 01100111
          -62 -723 -15 callsubr
        </CharString>
        <CharString name="uni01C7">
          484 -12 122 -110 126 560 -20 -10 callsubr
          424 81 callsubr
          hintmask 01111100
          67 hmoveto
          2 callsubr
          893 hmoveto
          hintmask 10111100
          -6 callgsubr
          41 -144 -43 vlineto
          -42 callgsubr
        </CharString>
        <CharString name="uni01C8">
          206 64 callsubr
          70 126 400 -20 93 124 -37 -20 -10 callsubr
          470 137 hintmask 11110110
          682 -3 callgsubr
          -615 -723 rmoveto
          515 126 -370 hlineto
          hintmask 11101110
          560 -145 vlineto
          520 -756 -84 callgsubr
        </CharString>
        <CharString name="uni01C9">
          68 callgsubr
          93 124 125 callgsubr
          hmoveto
          137 723 -137 hlineto
          278 -124 -23 callsubr
          -95 -793 -84 callgsubr
        </CharString>
        <CharString name="uni01CA">
          595 -12 122 -110 236 -215 11 callgsubr
          hstemhm
          43 callgsubr
          92 81 callsubr
          hintmask 00000000
          hintmask 00111111
          -8 callgsubr
          822 310 rmoveto
          hintmask 10011111
          -6 callgsubr
          hintmask 01011111
          41 -144 -43 vlineto
          hintmask 10011111
          -42 callgsubr
        </CharString>
        <CharString name="uni01CB">
          317 68 callgsubr
          93 87 -87 124 hstemhm
          43 callgsubr
          138 137 hintmask 11101111
          793 -3 callgsubr
          -279 -723 rmoveto
          141 hlineto
          hintmask 11110111
          120 callgsubr
          -379 82 callsubr
          373 rlineto
          -141 -686 141 379 hlineto
          18 -3 42 0 vhcurveto
          5 3 rlineto
          0 19 -38 20 -28 vhcurveto
          449 -446 -84 callgsubr
        </CharString>
        <CharString name="uni01CC">
          206 64 callsubr
          91 35 callgsubr
          -12 -20 93 124 -2 callgsubr
          139 137 hintmask 11011111
          682 -3 callgsubr
          -276 -723 rmoveto
          137 353 hlineto
          hintmask 11101111
          -54 callsubr
          hintmask 11011111
          -62 callsubr
          hintmask 11101111
          -61 callsubr
          181 -394 rmoveto
          -96 vlineto
          -8 22 41 -8 31 hhcurveto
          107 31 71 70 hvcurveto
          hintmask 11011111
          567 -137 -553 vlineto
          -28 -15 -15 -28 vhcurveto
          endchar
        </CharString>
        <CharString name="uni01CD">
          -85 callgsubr
          47 135 hstem
          2 718 vstem
          300 733 -102 callsubr
          368 -868 rmoveto
          -107 callgsubr
          endchar
        </CharString>
        <CharString name="uni01CE">
          -75 callgsubr
          50 135 97 callgsubr
          217 588 -102 callsubr
          436 -719 rmoveto
          hintmask 01111011
          -106 callsubr
          hintmask 10111101
          -104 callgsubr
          endchar
        </CharString>
        <CharString name="uni01CF">
          24 callgsubr
          67 135 95 callgsubr
          78 733 -102 callsubr
          95 37 callsubr
        </CharString>
        <CharString name="uni01D0">
          42 callsubr
          82 135 62 callsubr
          78 588 -102 callsubr
          99 122 callsubr
          endchar
        </CharString>
        <CharString name="uni01D1">
          95 123 callgsubr
          -31 callsubr
          328 733 -102 callsubr
          167 -880 rmoveto
          -107 callsubr
          endchar
        </CharString>
        <CharString name="uni01D2">
          -76 callsubr
          50 135 -17 callgsubr
          245 588 -102 callsubr
          166 -735 -105 callgsubr
          endchar
        </CharString>
        <CharString name="uni01D3">
          -22 callgsubr
          67 135 68 callsubr
          300 733 -102 callsubr
          316 -182 rmoveto
          -424 vlineto
          -104 callsubr
          431 vlineto
          endchar
        </CharString>
        <CharString name="uni01D4">
          -58 callsubr
          82 135 121 callsubr
          243 588 -102 callsubr
          286 -24 callgsubr
          hintmask 10111100
          -103 callgsubr
          endchar
        </CharString>
        <CharString name="uni01D5">
          -22 callgsubr
          84 118 55 88 -10 callsubr
          -15 -26 callgsubr
          -16 145 hintmask 00000000
          hintmask 11110110
          208 923 -51 callgsubr
          -11 -261 -99 callsubr
          hintmask 11111001
          103 -182 rmoveto
          -424 vlineto
          -104 callsubr
          431 vlineto
          endchar
        </CharString>
        <CharString name="uni01D6">
          -58 callsubr
          99 118 55 88 5 callgsubr
          7 callsubr
          hintmask 0111101100000000
          151 778 -51 callgsubr
          -11 -261 -99 callsubr
          hintmask 0111110010000000
          73 -24 callgsubr
          hintmask 1011110010000000
          -103 callgsubr
          endchar
        </CharString>
        <CharString name="uni01D7">
          -22 callgsubr
          84 118 35 132 -10 callsubr
          -15 -26 callgsubr
          -16 145 hintmask 11111001
          308 903 -102 callgsubr
          hintmask 11110110
          -190 -285 -99 callsubr
          hintmask 11111001
          103 -182 rmoveto
          -424 vlineto
          -104 callsubr
          431 vlineto
          endchar
        </CharString>
        <CharString name="uni01D8">
          -58 callsubr
          99 118 35 132 5 callgsubr
          hintmask 0111110010000000
          251 758 -102 callgsubr
          hintmask 0111101100000000
          -190 -285 -99 callsubr
          hintmask 0111110010000000
          73 -24 callgsubr
          hintmask 1011110010000000
          -103 callgsubr
          endchar
        </CharString>
        <CharString name="uni01D9">
          -22 callgsubr
          84 118 32 135 -10 callsubr
          -15 -26 callgsubr
          -16 145 hintmask 11111001
          300 900 -102 callsubr
          hintmask 11110110
          3 -285 -99 callsubr
          hintmask 11111001
          103 -182 rmoveto
          -424 vlineto
          -104 callsubr
          431 vlineto
          endchar
        </CharString>
        <CharString name="uni01DA">
          -58 callsubr
          99 118 32 135 5 callgsubr
          hintmask 0111110010000000
          243 755 -102 callsubr
          hintmask 0111101100000000
          3 -285 -99 callsubr
          hintmask 0111110010000000
          73 -24 callgsubr
          hintmask 1011110010000000
          -103 callgsubr
          endchar
        </CharString>
        <CharString name="uni01DB">
          -22 callgsubr
          84 118 35 132 -10 callsubr
          -15 -26 callgsubr
          -16 145 hintmask 11111001
          308 903 -90 callsubr
          hintmask 11110110
          -3 -282 -99 callsubr
          hintmask 11111001
          103 -182 rmoveto
          -424 vlineto
          -104 callsubr
          431 vlineto
          endchar
        </CharString>
        <CharString name="uni01DC">
          -58 callsubr
          99 118 35 132 5 callgsubr
          hintmask 0111110010000000
          251 758 -90 callsubr
          hintmask 0111101100000000
          -3 -282 -99 callsubr
          hintmask 0111110010000000
          73 -24 callgsubr
          hintmask 1011110010000000
          -103 callgsubr
          endchar
        </CharString>
        <CharString name="uni01EA">
          95 -182 69 101 -79 callsubr
          hstem
          8 callgsubr
          201 105 91 149 vstem
          737 343 rmoveto
          7 callgsubr
          113 -216 -215 -132 -113 -242 -242 132 -113 215 11 11 0 1 11 vhcurveto
          -17 -21 -13 -26 71 callgsubr
          28 19 27 13 14 hvcurveto
          131 42 77 110 184 vvcurveto
          -546 -15 rmoveto
          30 vlineto
          136 66 81 132 133 66 -81 -136 vhcurveto
          -30 vlineto
          26 callgsubr
          endchar
        </CharString>
        <CharString name="uni01EB">
          -72 -182 69 101 112 326 112 hstem
          38 141 114 105 34 141 vstem
          573 263 rmoveto
          189 -89 86 -179 -178 -89 -86 -189 -62 callgsubr
          vhcurveto
          17 hlineto
          -16 -21 -13 -25 71 callgsubr
          27 18 27 13 15 hvcurveto
          96 34 48 83 139 vvcurveto
          -394 -8 rmoveto
          16 vlineto
          101 35 54 91 92 35 -54 -101 vhcurveto
          -16 vlineto
          -101 -35 -54 -92 -91 -35 54 101 vhcurveto
          endchar
        </CharString>
        <CharString name="uni01F1">
          650 0 123 440 123 hstem
          67 145 318 149 vstem
          67 hmoveto
          -46 callsubr
        </CharString>
        <CharString name="uni01F2">
          87 callsubr
          -10 callsubr
          318 149 hintmask 10111100
          67 hmoveto
          -37 callsubr
          -3 callsubr
          hvcurveto
          -284 hlineto
          463 -328 rmoveto
          -30 vlineto
          hintmask 01111100
          -128 -60 -77 -119 vhcurveto
          -139 440 139 hlineto
          hintmask 10111100
          24 callsubr
          213 -358 rmoveto
          -92 callsubr
          endchar
        </CharString>
        <CharString name="uni01F3">
          82 callgsubr
          185 -20 80 callsubr
          hintmask 01100111
          41 callsubr
          hlineto
          hintmask 01010111
          -258 -6 vlineto
          hintmask 10001111
          -69 callsubr
          hintmask 01100111
          218 -69 -15 callsubr
        </CharString>
        <CharString name="uni01F4">
          -37 callgsubr
          38 132 53 callsubr
          336 -87 callsubr
          hintmask 01111110
          202 -868 rmoveto
          -18 callsubr
          hintmask 10111110
          -98 callsubr
          endchar
        </CharString>
        <CharString name="uni01F5">
          -33 callsubr
          53 132 -33 callgsubr
          195 136 -75 138 -134 134 hintmask 1111100110000000
          253 -92 callgsubr
          hintmask 1111110001000000
          -177 -83 callgsubr
        </CharString>
        <CharString name="uni0200">
          -85 callgsubr
          50 132 hstem
          2 718 vstem
          346 736 -97 callgsubr
          146 -736 rmoveto
          -107 callgsubr
          endchar
        </CharString>
        <CharString name="uni0201">
          -20 callsubr
          263 591 -97 callgsubr
          214 -587 rmoveto
          hintmask 01111011
          -106 callsubr
          hintmask 10111101
          -104 callgsubr
          endchar
        </CharString>
        <CharString name="uni0202">
          -85 callgsubr
          93 89 hstem
          2 718 vstem
          522 -72 callsubr
          130 -731 rmoveto
          -107 callgsubr
          endchar
        </CharString>
        <CharString name="uni0203">
          -75 callgsubr
          48 137 -89 89 -68 callsubr
          7 callsubr
          hintmask 1011101010000000
          439 586 rmoveto
          hintmask 1011011010000000
          64 -46 73 -116 vhcurveto
          hintmask 1011101010000000
          28 callgsubr
          hintmask 1011011010000000
          -2 callsubr
          hintmask 1011101010000000
          -1 callgsubr
          198 -582 rmoveto
          hintmask 0111010110000000
          -106 callsubr
          hintmask 1011011010000000
          -188 -130 -44 -142 -128 106 -20 57 85 44 28 41 35 hvcurveto
          6 hlineto
          -44 13 39 -25 54 hhcurveto
          hintmask 1011101010000000
          39 26 9 7 14 hvcurveto
          hintmask 1011011010000000
          -72 callgsubr
        </CharString>
        <CharString name="uni0204">
          -79 callgsubr
          50 132 95 callgsubr
          319 736 -97 callgsubr
          -322 -736 rmoveto
          -99 callgsubr
          endchar
        </CharString>
        <CharString name="uni0205">
          -60 callgsubr
          53 132 hstem
          -5 callsubr
          vstem
          263 591 -97 callgsubr
          -158 -360 -106 callgsubr
          endchar
        </CharString>
        <CharString name="uni0206">
          -79 callgsubr
          93 89 95 callgsubr
          495 -72 callsubr
          -338 -731 rmoveto
          -99 callgsubr
          endchar
        </CharString>
        <CharString name="uni0207">
          -60 callgsubr
          48 137 -89 89 60 callgsubr
          hintmask 00000000
          hintmask 11110110
          439 586 rmoveto
          hintmask 11101110
          64 -46 73 -116 vhcurveto
          hintmask 11110110
          28 callgsubr
          hintmask 11101110
          -2 callsubr
          hintmask 11110110
          -1 callgsubr
          -174 -355 -106 callgsubr
          endchar
        </CharString>
        <CharString name="uni0208">
          -405 27 callgsubr
          67 145 vstem
          124 736 -97 callgsubr
          -127 -736 -34 callgsubr
        </CharString>
        <CharString name="uni0209">
          40 callgsubr
          124 591 -97 callgsubr
          -123 -591 rmoveto
          -39 callsubr
        </CharString>
        <CharString name="uni020A">
          24 callgsubr
          113 89 95 callgsubr
          300 -72 callsubr
          -143 -731 -34 callgsubr
        </CharString>
        <CharString name="uni020B">
          42 callsubr
          80 106 callgsubr
          71 137 hintmask 00000000
          hintmask 11101000
          300 586 rmoveto
          hintmask 11011000
          64 -46 73 -116 vhcurveto
          hintmask 11101000
          28 callgsubr
          hintmask 11011000
          -2 callsubr
          hintmask 11101000
          -1 callgsubr
          -139 -586 rmoveto
          -39 callsubr
        </CharString>
        <CharString name="uni020C">
          -12 callsubr
          374 736 -97 callgsubr
          -55 -748 rmoveto
          -107 callsubr
          endchar
        </CharString>
        <CharString name="uni020D">
          -38 callsubr
          291 591 -97 callgsubr
          -56 -603 -105 callgsubr
          endchar
        </CharString>
        <CharString name="uni020E">
          -67 callgsubr
          81 89 -31 callsubr
          550 -72 callsubr
          -71 -743 rmoveto
          -107 callsubr
          endchar
        </CharString>
        <CharString name="uni020F">
          -76 callsubr
          48 137 -89 89 10 callgsubr
          129 callgsubr
          467 586 rmoveto
          hintmask 11011100
          64 -46 73 -116 vhcurveto
          hintmask 11101100
          28 callgsubr
          hintmask 11011100
          -2 callsubr
          hintmask 11101100
          -1 callgsubr
          -72 -598 -105 callgsubr
          endchar
        </CharString>
        <CharString name="uni0210">
          23 callgsubr
          50 132 -42 callsubr
          303 147 vstem
          346 736 -97 callgsubr
          109 -736 rmoveto
          -95 callgsubr
          endchar
        </CharString>
        <CharString name="uni0211">
          -294 21 9 callsubr
          82 132 -16 callgsubr
          hintmask 10011100
          180 591 -97 callgsubr
          -179 -591 -47 callsubr
        </CharString>
        <CharString name="uni0212">
          23 callgsubr
          93 89 -42 callsubr
          303 147 vstem
          522 -72 callsubr
          93 -731 rmoveto
          -95 callgsubr
          endchar
        </CharString>
        <CharString name="uni0213">
          -294 21 9 callsubr
          77 106 callgsubr
          71 137 hintmask 00000000
          hintmask 10011010
          356 586 rmoveto
          hintmask 10010110
          64 -46 73 -116 vhcurveto
          hintmask 10011010
          28 callgsubr
          hintmask 10010110
          -2 callsubr
          hintmask 11001010
          -1 callgsubr
          -195 -586 rmoveto
          137 254 hlineto
          96 36 51 91 vhcurveto
          38 hlineto
          hintmask 10010110
          128 vlineto
          hintmask 11000110
          -23 callgsubr
          hintmask 10100110
          -11 85 129 callsubr
          endchar
        </CharString>
        <CharString name="uni0214">
          39 -12 123 575 -20 70 132 68 callsubr
          346 736 -97 callgsubr
          94 -50 rmoveto
          -424 vlineto
          -104 callsubr
          431 vlineto
          endchar
        </CharString>
        <CharString name="uni0215">
          -25 callgsubr
          289 591 -97 callgsubr
          64 -591 rmoveto
          -73 callgsubr
          hintmask 10111100
          -103 callgsubr
          endchar
        </CharString>
</ttFont>
